<svg xmlns="http://www.w3.org/2000/svg" width="18.002" height="18" viewBox="0 0 18.002 18">
  <defs>
    <style>
      .cls-1 {
        fill: none;
      }

      .cls-2 {
        fill: #d0e8f2;
      }
    </style>
  </defs>
  <g id="研发费用管理" transform="translate(-11 -92)">
    <rect id="矩形_3404" data-name="矩形 3404" class="cls-1" width="18" height="18" transform="translate(11 92)"/>
    <g id="组_3046" data-name="组 3046" transform="translate(-655.425 74.767)">
      <path id="路径_6468" data-name="路径 6468" class="cls-2" d="M674.859,26.1c4.586,0,8.434-1.954,8.434-4.438s-3.743-4.427-8.434-4.427-8.434,2-8.434,4.427S670.231,26.1,674.859,26.1Zm1.687,7.291a15.391,15.391,0,0,1-1.687.09c-4.649-.009-8.371-1.953-8.371-4.427v1.772c0,2.334,3.331,4.208,7.612,4.408h1.507a14.888,14.888,0,0,0,2.309-.281,4.555,4.555,0,0,1-1.371-1.563Z" transform="translate(0)"/>
      <path id="路径_6469" data-name="路径 6469" class="cls-2" d="M674.859,30.6a16.725,16.725,0,0,0,1.9-.12,4.749,4.749,0,0,1,3.932-2,5.167,5.167,0,0,1,1.191.16,3.259,3.259,0,0,0,1.413-2.274v-2c-.063,2.475-3.785,4.427-8.434,4.438s-8.371-2-8.434-4.438v1.984c.211,2.394,3.869,4.257,8.434,4.257Z" transform="translate(0 -1.491)"/>
      <path id="减去_5" data-name="减去 5" class="cls-2" d="M22555.637,19891.217a3.56,3.56,0,1,1,3.732-3.566v.01A3.653,3.653,0,0,1,22555.637,19891.217Zm-1.641-3.006a.288.288,0,1,0,0,.576h1.307v1.07a.281.281,0,0,0,.289.289.286.286,0,0,0,.289-.289v-1.07h1.309a.288.288,0,0,0,0-.576h-1.309v-.459h1.309a.289.289,0,0,0,0-.578h-1.3l1.064-1.1a.286.286,0,0,0,.082-.205.29.29,0,0,0-.5-.191l-.934.969-.957-.924a.292.292,0,0,0-.2-.078.288.288,0,0,0-.207.084.293.293,0,0,0-.084.217.27.27,0,0,0,.09.191l1.082,1.041H22554a.289.289,0,0,0,0,.578h1.307v.459Zm-2.984.2h-2.072c-4.283-.223-7.514-2.119-7.514-4.41v-1.77c0,2.234,3.016,4.08,7.168,4.385h2.355l.125.063a4.552,4.552,0,0,0-.148,1,3.87,3.87,0,0,0,.086.729Zm7.094-4.508,0,0a3.6,3.6,0,0,0-.451-.229,2.626,2.626,0,0,0,.453-1.445v1.676Z" transform="translate(-21874.941 -19856.256)"/>
    </g>
  </g>
</svg>
