<svg xmlns="http://www.w3.org/2000/svg" width="18" height="18" viewBox="0 0 18 18">
  <defs>
    <style>
      .cls-1 {
        fill: none;
      }

      .cls-2 {
        fill: #d0e8f2;
      }
    </style>
  </defs>
  <g id="后台管理" transform="translate(-14 -895)">
    <path id="路径_4244" data-name="路径 4244" class="cls-1" d="M0,0H18V18H0Z" transform="translate(14 895)"/>
    <path id="路径_5" data-name="路径 5" class="cls-2" d="M978.262,507.638c-.113-.589-.443-.968-.857-.968h-.085a2.277,2.277,0,0,1-2.205-2.336,2.7,2.7,0,0,1,.2-.888,1.27,1.27,0,0,0-.4-1.488l-.028-.02-2.233-1.308-.028-.01a1.069,1.069,0,0,0-.481-.1,1.276,1.276,0,0,0-.914.389,3.124,3.124,0,0,1-1.743,1.038c-.66,0-1.5-.789-1.753-1.048a1.247,1.247,0,0,0-.914-.4,1.317,1.317,0,0,0-.471.09l-.028.01-2.3,1.338-.029.02a1.275,1.275,0,0,0-.4,1.478,2.7,2.7,0,0,1,.2.888,2.277,2.277,0,0,1-2.205,2.336h-.085c-.424,0-.763.379-.858.968a12.659,12.659,0,0,0-.189,1.867,14.234,14.234,0,0,0,.189,1.867c.113.589.443.968.858.968h.094a2.276,2.276,0,0,1,2.205,2.336,2.465,2.465,0,0,1-.2.888,1.27,1.27,0,0,0,.4,1.488l.019.02,2.186,1.308.028.01a1.058,1.058,0,0,0,.471.1,1.181,1.181,0,0,0,.914-.419,3.172,3.172,0,0,1,1.772-1.1c.679,0,1.546.829,1.8,1.118a1.2,1.2,0,0,0,.924.419,1.144,1.144,0,0,0,.471-.1l.028-.01,2.271-1.328.028-.02a1.275,1.275,0,0,0,.4-1.478,2.7,2.7,0,0,1-.2-.888,2.277,2.277,0,0,1,2.205-2.336h.085c.424,0,.763-.379.867-.968a12.983,12.983,0,0,0,.188-1.867,13.539,13.539,0,0,0-.2-1.867Zm-8.858,5.241a3.38,3.38,0,1,1,3.185-3.374A3.286,3.286,0,0,1,969.4,512.879Z" transform="translate(-946.46 394.5)"/>
  </g>
</svg>
