<svg id="合同管理" xmlns="http://www.w3.org/2000/svg" width="18" height="18.001" viewBox="0 0 18 18.001">
  <defs>
    <style>
      .cls-1 {
        fill: none;
      }

      .cls-2 {
        fill: #d0e8f2;
      }
    </style>
  </defs>
  <rect id="矩形_3404" data-name="矩形 3404" class="cls-1" width="18" height="18" transform="translate(0 0.001)"/>
  <g id="组_2362" data-name="组 2362" transform="translate(1.001)">
    <path id="路径_4645" data-name="路径 4645" class="cls-2" d="M71.668,227.242h-1.5v6.24h1.5a3.139,3.139,0,1,0,0-6.24Z" transform="translate(-63.746 -223.173)"/>
    <path id="路径_4646" data-name="路径 4646" class="cls-2" d="M79.4,224H67.638a2.347,2.347,0,0,0-2.39,2.291v13.417A2.347,2.347,0,0,0,67.638,242H79.4a2.408,2.408,0,0,0,2.145-1.286H67.8a.878.878,0,0,1-.894-.857v.069a.879.879,0,0,1,.894-.858H78.55a3.18,3.18,0,0,0,3.236-3.1v-9.674A2.349,2.349,0,0,0,79.4,224Zm-2.23,10.991a5.19,5.19,0,0,1-3.874,1.345H69.449v-10h3.845a5.19,5.19,0,0,1,3.874,1.345,5.9,5.9,0,0,1,0,7.309Z" transform="translate(-65.248 -224)"/>
  </g>
</svg>
