<svg xmlns="http://www.w3.org/2000/svg" width="18" height="18.001" viewBox="0 0 18 18.001">
  <defs>
    <style>
      .cls-1 {
        fill: none;
      }

      .cls-2 {
        fill: #d0e8f2;
      }
    </style>
  </defs>
  <g id="申报管理" transform="translate(0 0)">
    <rect id="矩形_3404" data-name="矩形 3404" class="cls-1" width="18" height="18" transform="translate(0 0)"/>
    <g id="组_6088" data-name="组 6088" transform="translate(0 0)">
      <path id="路径_6395" data-name="路径 6395" class="cls-2" d="M23.443,4.854a.543.543,0,0,0-.209-.195L14.823.071a.589.589,0,0,0-.589.016L5.8,4.669a.51.51,0,0,0-.206.718.537.537,0,0,0,.135.148l0,.006,8.507,4.622a.59.59,0,0,0,.566,0l8.442-4.586a.511.511,0,0,0,.2-.72Z" transform="translate(-5.518 0)"/>
      <path id="路径_6396" data-name="路径 6396" class="cls-2" d="M23.443,87.484a.543.543,0,0,0-.209-.195L21.9,86.56l-1.518.825.656.363-6.524,3.587L8,87.754l.657-.361-1.516-.823L5.8,87.3a.51.51,0,0,0-.206.718.537.537,0,0,0,.135.148l0,.006,8.507,4.622a.59.59,0,0,0,.566,0L23.239,88.2a.511.511,0,0,0,.2-.72Z" transform="translate(-5.518 -78.746)"/>
      <path id="路径_6397" data-name="路径 6397" class="cls-2" d="M23.233,130.307l-1.337-.729-1.518.825.656.363-6.524,3.588L8,130.772l.657-.361-1.516-.823-1.344.73a.51.51,0,0,0-.206.718.537.537,0,0,0,.135.148l0,.006,8.507,4.622a.59.59,0,0,0,.566,0l8.442-4.586a.511.511,0,0,0,.2-.72.544.544,0,0,0-.209-.195Z" transform="translate(-5.518 -117.881)"/>
    </g>
  </g>
</svg>
