<svg xmlns="http://www.w3.org/2000/svg" width="18" height="18.005" viewBox="0 0 18 18.005">
  <defs>
    <style>
      .cls-1 {
        fill: none;
      }

      .cls-2 {
        fill: #d0e8f2;
      }
    </style>
  </defs>
  <g id="缺陷管理" transform="translate(-11 -92)">
    <rect id="矩形_3404" data-name="矩形 3404" class="cls-1" width="18" height="18" transform="translate(11 92)"/>
    <g id="组_6482" data-name="组 6482" transform="translate(-758.18 76.468)">
      <path id="路径_9168" data-name="路径 9168" class="cls-2" d="M785.567,18.459a5.4,5.4,0,0,0-9.6,0,6.033,6.033,0,0,0,1.138,1.955,4.735,4.735,0,0,0,7.323,0A6.03,6.03,0,0,0,785.567,18.459Z" transform="translate(-2.588)"/>
      <path id="路径_9169" data-name="路径 9169" class="cls-2" d="M772.961,19.962c-.069.135-.135.272-.2.412a2.827,2.827,0,0,1-.309-.275,1.324,1.324,0,0,1-.181-.351,1.265,1.265,0,0,0-.4-1.491.879.879,0,0,0-1.3.438,1.271,1.271,0,0,0,.366,1.558.9.9,0,0,0,.154.083,2.719,2.719,0,0,0,.54.932,3.74,3.74,0,0,0,.606.509,12.537,12.537,0,0,0-.5,3.121,3.041,3.041,0,0,0-1.015.2,1.643,1.643,0,0,0-.472.279.862.862,0,0,0-.116-.008,1.163,1.163,0,1,0,.956,1.191,1.984,1.984,0,0,1,.682-.133,11.705,11.705,0,0,0,1.141,4.256,3.409,3.409,0,0,0-1.061,1.732.653.653,0,0,0-.075.065,1.1,1.1,0,0,0-.111.125,1.308,1.308,0,0,0,.071,1.617.852.852,0,0,0,1.352-.085,1.317,1.317,0,0,0,.022-1.5,2.114,2.114,0,0,1,.545-.714,5.694,5.694,0,0,0,4.134,2.6V23.78A5.815,5.815,0,0,1,772.961,19.962Z" transform="translate(0 -0.983)"/>
      <path id="路径_9170" data-name="路径 9170" class="cls-2" d="M791.785,25.366a.863.863,0,0,0-.116.008,1.647,1.647,0,0,0-.471-.279,3.049,3.049,0,0,0-1.016-.2,12.529,12.529,0,0,0-.5-3.121,3.749,3.749,0,0,0,.606-.509,2.727,2.727,0,0,0,.54-.932.9.9,0,0,0,.154-.083,1.271,1.271,0,0,0,.366-1.558.879.879,0,0,0-1.3-.438,1.265,1.265,0,0,0-.4,1.491,1.322,1.322,0,0,1-.181.351,2.817,2.817,0,0,1-.309.275c-.064-.141-.131-.278-.2-.412a5.815,5.815,0,0,1-4.831,3.819V34.519a5.693,5.693,0,0,0,4.134-2.6,2.123,2.123,0,0,1,.545.714,1.316,1.316,0,0,0,.022,1.5.852.852,0,0,0,1.352.086,1.307,1.307,0,0,0,.071-1.617,1.088,1.088,0,0,0-.111-.125.653.653,0,0,0-.075-.065,3.405,3.405,0,0,0-1.06-1.732,11.706,11.706,0,0,0,1.14-4.256,1.984,1.984,0,0,1,.682.133.976.976,0,1,0,.956-1.191Z" transform="translate(-5.562 -0.983)"/>
    </g>
  </g>
</svg>
