<?xml version="1.0" standalone="no"?><!DOCTYPE svg PUBLIC "-//W3C//DTD SVG 1.1//EN" "http://www.w3.org/Graphics/SVG/1.1/DTD/svg11.dtd"><svg t="1574045325576" class="icon" viewBox="0 0 1025 1024" version="1.1" xmlns="http://www.w3.org/2000/svg" p-id="3348" xmlns:xlink="http://www.w3.org/1999/xlink" width="200.1953125" height="200"><defs><style type="text/css"></style></defs><path d="M484.694568 1023.997156a454.142486 454.142486 0 0 1-246.157402-72.248648 205.652648 205.652648 0 0 0 68.266439-153.030602 204.344208 204.344208 0 0 0-203.433989-204.799317 200.930886 200.930886 0 0 0-73.955309 14.051509A413.580844 413.580844 0 0 1 27.081871 563.198692a460.798464 460.798464 0 0 1 263.849787-417.563053 204.799317 204.799317 0 0 0 199.110447 161.563906 202.865102 202.865102 0 0 0 197.802008-157.069699A460.798464 460.798464 0 0 1 942.307264 563.198692c0 14.563507-0.682664 29.013237-1.934215 42.894079a201.158441 201.158441 0 0 0-69.176659-12.174182 205.083761 205.083761 0 0 0-137.386208 356.123258A453.51671 453.51671 0 0 1 484.694568 1023.997156z m386.444934-122.879591a102.399659 102.399659 0 1 1 101.660105-102.399659 102.399659 102.399659 0 0 1-101.660105 102.399659z m-767.99744 0a102.399659 102.399659 0 1 1 101.660105-102.399659 102.399659 102.399659 0 0 1-101.489439 102.399659zM489.814551 204.799886a102.399659 102.399659 0 1 1 101.660105-102.399658 102.399659 102.399659 0 0 1-101.660105 102.399658z" fill="#D0E8F2" p-id="3349"></path></svg>