<?xml version="1.0" standalone="no"?><!DOCTYPE svg PUBLIC "-//W3C//DTD SVG 1.1//EN" "http://www.w3.org/Graphics/SVG/1.1/DTD/svg11.dtd"><svg t="1574044591534" class="icon" viewBox="0 0 1024 1024" version="1.1" xmlns="http://www.w3.org/2000/svg" p-id="2902" xmlns:xlink="http://www.w3.org/1999/xlink" width="200" height="200"><defs><style type="text/css"></style></defs><path d="M507.562871 231.493539h-85.329398v354.970299h85.329398a178.565988 178.565988 0 1 0 0-354.970299z" fill="#D0E8F2" p-id="2903"></path><path d="M861.964307 0.023323H192.868049A133.512066 133.512066 0 0 0 56.909874 130.349758v763.243029A133.512066 133.512066 0 0 0 192.868049 1023.976108h669.096258a136.982128 136.982128 0 0 0 122.02104-73.155738H202.083624a49.946141 49.946141 0 0 1-50.856322-48.75153v3.925152a50.003028 50.003028 0 0 1 50.856322-48.808416h611.527357a180.898325 180.898325 0 0 0 184.083956-176.347424V130.520417A133.625838 133.625838 0 0 0 861.964307 0.023323z m-126.856373 625.236948a295.23972 295.23972 0 0 1-220.377393 76.512027H295.889076v-568.862658h218.727692a295.23972 295.23972 0 0 1 220.377394 76.512028 335.628968 335.628968 0 0 1 0 415.781717z" fill="#D0E8F2" p-id="2904"></path></svg>