<?xml version="1.0" standalone="no"?><!DOCTYPE svg PUBLIC "-//W3C//DTD SVG 1.1//EN" "http://www.w3.org/Graphics/SVG/1.1/DTD/svg11.dtd"><svg t="1574045317120" class="icon" viewBox="0 0 1024 1024" version="1.1" xmlns="http://www.w3.org/2000/svg" p-id="3237" xmlns:xlink="http://www.w3.org/1999/xlink" width="200" height="200"><defs><style type="text/css"></style></defs><path d="M973.425778 922.737778h-45.511111V514.844444a112.526222 112.526222 0 0 0-112.526223-112.526222h-278.755555V112.583111A112.526222 112.526222 0 0 0 424.277333 0H186.083556a112.526222 112.526222 0 0 0-112.526223 112.526222V922.737778h-22.755555a50.631111 50.631111 0 0 0 0 101.262222h922.624a50.631111 50.631111 0 0 0 0-101.262222zM394.296889 318.577778H199.224889a43.178667 43.178667 0 0 1 0-86.300445h195.072a43.178667 43.178667 0 0 1 0 86.300445z m0 222.72H199.224889a43.121778 43.121778 0 1 1 0-86.243556h195.072a43.121778 43.121778 0 0 1 0 86.243556z m0 247.182222H199.224889a43.121778 43.121778 0 1 1 0-86.243556h195.072a43.121778 43.121778 0 0 1 0 86.243556z m310.840889-133.290667a32.426667 32.426667 0 0 1-32.369778-32.369777V519.224889a32.426667 32.426667 0 0 1 32.369778-32.369778 32.426667 32.426667 0 0 1 32.369778 32.369778v103.594667a32.426667 32.426667 0 0 1-32.369778 32.654222z m0 193.934223a32.426667 32.426667 0 0 1-32.369778-32.369778v-103.594667a32.426667 32.426667 0 0 1 32.369778-32.369778 32.426667 32.426667 0 0 1 32.369778 32.369778v103.594667a32.426667 32.426667 0 0 1-32.369778 32.654222z" fill="#D0E8F2" p-id="3238"></path></svg>