<svg xmlns="http://www.w3.org/2000/svg" width="18.002" height="18" viewBox="0 0 18.002 18">
  <defs>
    <style>
      .cls-1 {
        fill: none;
      }

      .cls-2 {
        fill: #d0e8f2;
      }
    </style>
  </defs>
  <g id="图文管理" transform="translate(-11 -94)">
    <rect id="矩形_3404" data-name="矩形 3404" class="cls-1" width="18" height="18" transform="translate(11 94)"/>
    <path id="联合_3" data-name="联合 3" class="cls-2" d="M21272.338,19049a1.255,1.255,0,0,1-.93-.434,1.458,1.458,0,0,1-.406-1.016v-12.166a1.548,1.548,0,0,1,.342-1.031,1.149,1.149,0,0,1,.908-.4h11.939a1.457,1.457,0,0,1,1.219.486,2.016,2.016,0,0,1,.373,1.271v11.947a1.3,1.3,0,0,1-.4.918,1.365,1.365,0,0,1-1.016.424Zm.021-13.219a.526.526,0,0,0-.043.209v5.8a4.9,4.9,0,0,0,.48.465,4.076,4.076,0,0,0,.732.5,4.908,4.908,0,0,0,.936.389,3.788,3.788,0,0,0,1.123.166,4.039,4.039,0,0,0,1.582-.293,6.076,6.076,0,0,0,1.256-.738c.389-.293.77-.613,1.143-.951a9.711,9.711,0,0,1,1.236-.961,6.989,6.989,0,0,1,1.549-.77,6.773,6.773,0,0,1,2.074-.357v-3.008a.956.956,0,0,0-.225-.643.9.9,0,0,0-.717-.271h-10.5A.663.663,0,0,0,21272.359,19035.777Zm14.811,8.084v-1.936a.165.165,0,0,1,.166-.164h.111a.5.5,0,0,0,.363-.156.538.538,0,0,0,.15-.379.521.521,0,0,0-.15-.363.5.5,0,0,0-.363-.154h-.111a.163.163,0,0,1-.166-.166v-1.154a.167.167,0,0,1,.166-.166h.111a.5.5,0,0,0,.363-.154.511.511,0,0,0,.15-.363.546.546,0,0,0-.15-.369.485.485,0,0,0-.363-.16h-.111a.166.166,0,0,1-.166-.166v-1.025a.167.167,0,0,1,.166-.166h.111a.5.5,0,0,0,.363-.154.531.531,0,0,0,.15-.379.521.521,0,0,0-.15-.363.5.5,0,0,0-.363-.15h-.111a.166.166,0,0,1-.166-.166v-.9a1.921,1.921,0,0,0-.5-1.5,2.5,2.5,0,0,0-1.67-.443h-7.7a.879.879,0,0,1,0-1.758h9.938a1.653,1.653,0,0,1,1.281.535,1.778,1.778,0,0,1,.48,1.223v11.1a.916.916,0,1,1-1.832,0Zm-12.855-5.209a1.228,1.228,0,0,1-.357-.877,1.245,1.245,0,0,1,.357-.893,1.169,1.169,0,0,1,.879-.369,1.188,1.188,0,0,1,.875.369,1.226,1.226,0,0,1,.363.893,1.21,1.21,0,0,1-.363.877,1.194,1.194,0,0,1-.875.367A1.175,1.175,0,0,1,21274.314,19038.652Z" transform="translate(-21260 -18936.996)"/>
  </g>
</svg>
