<?xml version="1.0" standalone="no"?><!DOCTYPE svg PUBLIC "-//W3C//DTD SVG 1.1//EN" "http://www.w3.org/Graphics/SVG/1.1/DTD/svg11.dtd"><svg t="1574046349443" class="icon" viewBox="0 0 1024 1024" version="1.1" xmlns="http://www.w3.org/2000/svg" p-id="1991" xmlns:xlink="http://www.w3.org/1999/xlink" width="200" height="200"><defs><style type="text/css"></style></defs><path d="M716.183879 885.826331a107.512653 107.512653 0 0 0-107.341999-106.318069H448.36929a107.512653 107.512653 0 0 0-107.626423 106.318069v24.517436h375.441012z" fill="#D0E8F2" p-id="1992"></path><path d="M934.90671 754.080667H89.083619A87.659788 87.659788 0 0 1 0.001707 665.965799v-466.457014A89.821418 89.821418 0 0 1 93.236225 113.839972h837.460995A89.878303 89.878303 0 0 1 1023.931738 199.622555v466.457014a87.659788 87.659788 0 0 1-89.025028 88.001098zM111.325655 175.787739V382.33718c0 11.377 16.325996 15.13141 23.322851 16.098456h0.45508s21.331876 0 21.331875-19.340901l-0.625735-203.306996z m89.025028 0v123.952419a22.355806 22.355806 0 0 0 44.540956 0V234.436176 175.844624z" fill="#D0E8F2" p-id="1993"></path></svg>