<svg xmlns="http://www.w3.org/2000/svg" width="18.469" height="18.001" viewBox="0 0 18.469 18.001">
  <defs>
    <style>
      .cls-1 {
        fill: none;
      }

      .cls-2 {
        fill: #d0e8f2;
      }
    </style>
  </defs>
  <g id="信息中心" transform="translate(-0.001 -0.001)">
    <rect id="矩形_3404" data-name="矩形 3404" class="cls-1" width="18" height="18" transform="translate(0.001 0.003)"/>
    <g id="组_2930" data-name="组 2930" transform="translate(0.001 0.001)">
      <path id="路径_6381" data-name="路径 6381" class="cls-2" d="M43.165,364.529H33.931a.513.513,0,0,0,0,1.026h9.234a.513.513,0,1,0,0-1.026Z" transform="translate(-29.313 -348.113)"/>
      <path id="路径_6382" data-name="路径 6382" class="cls-2" d="M40.472,347.355a.689.689,0,0,0-.5.2.686.686,0,0,0,0,.985.69.69,0,0,0,.5.2.7.7,0,0,0,0-1.394Z" transform="translate(-31.232 -342.921)"/>
      <path id="路径_6383" data-name="路径 6383" class="cls-2" d="M40.924,350.473a.505.505,0,0,0-.383-.164.523.523,0,0,0-.389.164.558.558,0,0,0-.159.4v3.336a.492.492,0,0,0,.159.383.558.558,0,0,0,.389.144.544.544,0,0,0,.388-.149.509.509,0,0,0,.16-.389l-.01-3.325A.566.566,0,0,0,40.924,350.473Z" transform="translate(-31.301 -343.814)"/>
      <path id="路径_6384" data-name="路径 6384" class="cls-2" d="M43.952,341H29.587a2.052,2.052,0,0,0-2.052,2.052v11.287a2.052,2.052,0,0,0,2.052,2.052H43.952A2.052,2.052,0,0,0,46,354.339V343.052A2.052,2.052,0,0,0,43.952,341Zm-3.071,9.417a4.5,4.5,0,0,1-2.369,2.369,4.455,4.455,0,0,1-3.479,0,4.483,4.483,0,0,1-2.375-2.369,4.463,4.463,0,0,1,0-3.479,4.464,4.464,0,0,1,2.375-2.374,4.455,4.455,0,0,1,3.479,0,4.479,4.479,0,0,1,2.369,2.374,4.455,4.455,0,0,1,0,3.479Z" transform="translate(-27.535 -341)"/>
    </g>
  </g>
</svg>
