<?xml version="1.0" standalone="no"?><!DOCTYPE svg PUBLIC "-//W3C//DTD SVG 1.1//EN" "http://www.w3.org/Graphics/SVG/1.1/DTD/svg11.dtd"><svg t="1574045342117" class="icon" viewBox="0 0 1024 1024" version="1.1" xmlns="http://www.w3.org/2000/svg" p-id="3681" xmlns:xlink="http://www.w3.org/1999/xlink" width="200" height="200"><defs><style type="text/css"></style></defs><path d="M696.639263 3.866237H556.674431a44.190441 44.190441 0 0 0-46.749732 46.692859v887.846807a44.190441 44.190441 0 0 0 46.749732 46.69286h140.135452a44.190441 44.190441 0 0 0 46.749732-46.69286V50.559096a44.190441 44.190441 0 0 0-46.920352-46.692859z m-23.374866 560.712425h-93.442592a23.374866 23.374866 0 0 1 0-46.692859h93.442592a23.374866 23.374866 0 0 1 0 46.692859z m0-140.135451h-93.442592a23.374866 23.374866 0 0 1 0-46.749733h93.442592a23.374866 23.374866 0 0 1 0 46.749733z m0-140.192325h-93.442592a23.374866 23.374866 0 0 1 0-46.749732h93.442592a23.374866 23.374866 0 0 1 0 46.749732z m0-140.192324h-93.442592a23.374866 23.374866 0 0 1 0-46.69286h93.442592a23.374866 23.374866 0 0 1 0 46.69286z" fill="#D0E8F2" p-id="3682"></path><path d="M477.222635 41.630011L339.248364 2.84252a46.465367 46.465367 0 0 0-59.3187 26.901002L2.104307 883.807675a48.68342 48.68342 0 0 0 31.507727 59.034334l138.31551 43.45109a48.569674 48.569674 0 0 0 59.034334-31.507727L508.787236 100.721218A44.929792 44.929792 0 0 0 477.222635 41.630011zM310.982406 561.507512a24.17109 24.17109 0 0 1-31.848966 15.924483l-90.542061-27.469733a25.194807 25.194807 0 1 1 15.981356-47.77345l90.542061 27.469734a24.227964 24.227964 0 0 1 15.86761 31.848966z m43.621709-133.595039a26.673509 26.673509 0 0 1-32.076459 11.374631l-90.542061-27.469733a25.137934 25.137934 0 0 1 15.924483-47.716577l90.997047 32.133332a24.114217 24.114217 0 0 1 15.69699 31.678347z m43.45109-138.31551a24.114217 24.114217 0 0 1-31.792093 15.924483l-90.542061-27.469734a24.17109 24.17109 0 0 1-15.924484-31.848966 26.787256 26.787256 0 0 1 32.076459-11.374631l90.542061 27.469734a20.815574 20.815574 0 0 1 15.640118 27.355987z m43.678582-133.595039a24.114217 24.114217 0 0 1-31.848966 15.924483l-90.542061-27.469733a25.194807 25.194807 0 1 1 15.981356-47.77345l90.542061 27.469734a24.17109 24.17109 0 0 1 15.924483 31.905839z" fill="#D0E8F2" p-id="3683"></path><path d="M977.023912 3.866237h-140.192324a44.133567 44.133567 0 0 0-46.69286 46.692859v887.846807a44.133567 44.133567 0 0 0 46.69286 46.69286h140.192324a44.133567 44.133567 0 0 0 46.69286-46.69286V50.559096a44.133567 44.133567 0 0 0-46.69286-46.692859z m-23.374866 560.712425h-93.499465a23.374866 23.374866 0 1 1 0-46.692859h93.499465a23.374866 23.374866 0 0 1 0 46.692859z m0-140.135451h-93.499465a23.374866 23.374866 0 0 1 0-46.749733h93.499465a23.374866 23.374866 0 0 1 0 46.749733z m0-140.192325h-93.499465a23.374866 23.374866 0 0 1 0-46.749732h93.499465a23.374866 23.374866 0 0 1 0 46.749732z m0-140.192324h-93.499465a23.374866 23.374866 0 1 1 0-46.69286h93.499465a23.374866 23.374866 0 0 1 0 46.69286z" fill="#D0E8F2" p-id="3684"></path></svg>