<?xml version="1.0" standalone="no"?><!DOCTYPE svg PUBLIC "-//W3C//DTD SVG 1.1//EN" "http://www.w3.org/Graphics/SVG/1.1/DTD/svg11.dtd"><svg t="1574045311966" class="icon" viewBox="0 0 1024 1024" version="1.1" xmlns="http://www.w3.org/2000/svg" p-id="3125" xmlns:xlink="http://www.w3.org/1999/xlink" width="200" height="200"><defs><style type="text/css"></style></defs><path d="M475.380563 743.145979H198.232839a45.944883 45.944883 0 1 1 0-91.832904h277.204587a45.944883 45.944883 0 1 1 0 91.832904zM198.175976 461.051218h376.145301a45.944883 45.944883 0 1 1 0 91.832905H198.232839a45.944883 45.944883 0 1 1 0-91.832905z m0-196.801041h481.738926a45.944883 45.944883 0 1 1 0 91.832904H198.232839a45.944883 45.944883 0 1 1 0-91.832904z m336.512153 516.766213a264.410529 264.410529 0 0 1 266.798754-262.477205 177.695248 177.695248 0 0 1 56.862479 6.596048V151.150706A156.371818 156.371818 0 0 0 693.448172 0.237685h-528.252434a156.371818 156.371818 0 0 0-164.90119 150.913021v721.698588A156.371818 156.371818 0 0 0 165.195738 1023.762315h534.507307a267.253653 267.253653 0 0 1-164.901191-242.745925z" fill="#D0E8F2" p-id="3126"></path><path d="M915.154979 726.144098l-12.680333 12.680332h-12.680333l-44.352734-44.352734v-12.680332l12.680333-12.680333h12.850921l44.352734 44.352734z m-38.040999 37.984136l-120.377869 120.377869a22.233229 22.233229 0 0 1-12.680332 6.368597l-56.86248 6.311736c-6.311735 0-6.311735 0-6.311735-6.311736l6.311735-56.862479c0-6.311735 0-6.311735 6.368598-12.680333l120.377869-120.377869h12.680333l44.352734 44.352734c12.62347 12.680333 12.62347 12.680333 6.311735 18.992068z m-76.025135-171.042338a196.403004 196.403004 0 1 0 196.403004 196.403004 197.426529 197.426529 0 0 0-196.403004-196.403004z" fill="#D0E8F2" p-id="3127"></path></svg>