<svg xmlns="http://www.w3.org/2000/svg" width="18.001" height="18" viewBox="0 0 18.001 18">
  <defs>
    <style>
      .cls-1 {
        fill: none;
      }

      .cls-2 {
        fill: #d0e8f2;
      }
    </style>
  </defs>
  <g id="研发失败管理" transform="translate(-10.999 -92)">
    <path id="路径_6466" data-name="路径 6466" class="cls-1" d="M0,0H18V18H0Z" transform="translate(11 92)"/>
    <path id="路径_6467" data-name="路径 6467" class="cls-2" d="M562.185,57.644a9,9,0,1,1,9-9A9,9,0,0,1,562.185,57.644Zm5.3-5.864-4.579-7.909a.546.546,0,0,0-.472-.271.56.56,0,0,0-.472.271l-4.585,7.924a.527.527,0,0,0,0,.541.545.545,0,0,0,.472.271h9.178a.541.541,0,0,0,.542-.541.5.5,0,0,0-.085-.286Zm-4.537-.826a.516.516,0,0,1-1.031,0v-.015a.516.516,0,0,1,1.031,0Zm-.042-2.22a.465.465,0,1,1-.928,0V46.1a.465.465,0,1,1,.928,0Z" transform="translate(-542.186 52.356)"/>
  </g>
</svg>
