<svg xmlns="http://www.w3.org/2000/svg" width="18.001" height="18.001" viewBox="0 0 18.001 18.001">
  <defs>
    <style>
      .cls-1 {
        fill: none;
      }

      .cls-2 {
        fill: #d0e8f2;
      }
    </style>
  </defs>
  <g id="任务管理" transform="translate(-10.999 -91.999)">
    <rect id="矩形_3404" data-name="矩形 3404" class="cls-1" width="18" height="18" transform="translate(11 92)"/>
    <path id="路径_6384" data-name="路径 6384" class="cls-2" d="M242.119,20.607l-1.9-.344a15.763,15.763,0,0,0-5.693.015,15.3,15.3,0,0,1-5.8.114l-1.887-.374a1.086,1.086,0,0,0-.926.243,1.164,1.164,0,0,0-.407.889V36.223h0c0,.013,0,.024,0,.037a1.687,1.687,0,1,0,3.373,0c0-.013,0-.024,0-.037h.019l.007-2.672a.125.125,0,0,1,.043-.094.12.12,0,0,1,.1-.027,15.753,15.753,0,0,0,5.559-.037,15.32,15.32,0,0,1,5.542-.015l2,.367a1.142,1.142,0,0,0,.948-.262,1.209,1.209,0,0,0,.414-.914V22.311A1.715,1.715,0,0,0,242.119,20.607ZM228.28,32.546a.861.861,0,1,1-1.72,0v-10.2a.861.861,0,1,1,1.72,0Z" transform="translate(-214.51 72.004)"/>
  </g>
</svg>
