<svg xmlns="http://www.w3.org/2000/svg" width="18" height="18" viewBox="0 0 18 18">
  <defs>
    <style>
      .cls-1 {
        fill: none;
      }

      .cls-2 {
        fill: #d0e8f2;
      }
    </style>
  </defs>
  <g id="物料管理" transform="translate(-11 -93)">
    <rect id="矩形_3404" data-name="矩形 3404" class="cls-1" width="18" height="18" transform="translate(11 93)"/>
    <g id="组_2222" data-name="组 2222" transform="translate(-21.187 -177.308)">
      <path id="路径_4587" data-name="路径 4587" class="cls-2" d="M40.8,283.373H35.775a.808.808,0,1,1,0-1.615H40.8a.808.808,0,1,1,0,1.615Zm-5.024-4.961h6.818a.808.808,0,1,1,0,1.615H35.775a.808.808,0,1,1,0-1.615Zm0-3.461h8.731a.808.808,0,1,1,0,1.615H35.775a.808.808,0,1,1,0-1.615Zm6.1,9.088a4.725,4.725,0,0,1,4.835-4.616,3.313,3.313,0,0,1,1.026.116v-6.577a2.8,2.8,0,0,0-2.99-2.654H35.177a2.8,2.8,0,0,0-2.99,2.654v12.692a2.8,2.8,0,0,0,2.99,2.654h9.688a4.707,4.707,0,0,1-2.99-4.269Z" transform="translate(0 0)"/>
      <path id="路径_4588" data-name="路径 4588" class="cls-2" d="M47.677,282.458h0l-.223.223h-.223l-.78-.78v-.223l.223-.223H46.9l.78.78Zm-.669.668-2.117,2.117a.391.391,0,0,1-.223.112l-1,.111c-.111,0-.111,0-.111-.111l.111-1c0-.111,0-.111.112-.223l2.117-2.117h.223l.78.78c.222.223.222.223.111.334Zm-1.337-3.008a3.454,3.454,0,1,0,3.454,3.454A3.472,3.472,0,0,0,45.671,280.118Z" transform="translate(1.062 0.616)"/>
    </g>
  </g>
</svg>
