<?xml version="1.0" standalone="no"?><!DOCTYPE svg PUBLIC "-//W3C//DTD SVG 1.1//EN" "http://www.w3.org/Graphics/SVG/1.1/DTD/svg11.dtd"><svg t="1574045348473" class="icon" viewBox="0 0 1024 1024" version="1.1" xmlns="http://www.w3.org/2000/svg" p-id="3794" xmlns:xlink="http://www.w3.org/1999/xlink" width="200" height="200"><defs><style type="text/css"></style></defs><path d="M888.242852 646.909372a127.166354 127.166354 0 0 1-27.52445-29.502594c-0.282592-0.621702-0.678221-1.130368-1.017331-1.808588v-0.282592a466.389668 466.389668 0 0 1-31.254664-154.973397c-0.565184-6.499614-1.186886-12.942709-1.865107-19.442322a14.920852 14.920852 0 0 0 0-1.808589 552.975825 552.975825 0 0 0-91.785848-244.668064 290.447952 290.447952 0 0 0-153.051772-111.849874 82.008169 82.008169 0 0 0-163.620708 0A290.16536 290.16536 0 0 0 265.014682 194.366707a552.862788 552.862788 0 0 0-91.842367 244.83762v1.582515l-1.865107 19.385804a466.785296 466.785296 0 0 1-31.424219 155.19947l-0.960812 1.695552a126.996799 126.996799 0 0 1-27.637488 29.728667 108.006623 108.006623 0 0 0-34.53273 147.682526 42.388785 42.388785 0 0 0 37.69776 22.607352h770.628104a42.445303 42.445303 0 0 0 37.641241-22.607352 108.006623 108.006623 0 0 0-34.476212-147.682526z m-291.352246 241.107407H405.97152a25.320234 25.320234 0 0 0-20.007506 8.195165 27.128822 27.128822 0 0 0-5.93443 21.703058 120.271112 120.271112 0 0 0 239.016227-1.41296 28.25919 28.25919 0 0 0-5.651838-21.476984 21.250911 21.250911 0 0 0-16.39033-6.951761z m0 0" fill="#D0E8F2" p-id="3795"></path></svg>