<?xml version="1.0" standalone="no"?><!DOCTYPE svg PUBLIC "-//W3C//DTD SVG 1.1//EN" "http://www.w3.org/Graphics/SVG/1.1/DTD/svg11.dtd"><svg t="1574045334642" class="icon" viewBox="0 0 1024 1024" version="1.1" xmlns="http://www.w3.org/2000/svg" p-id="3570" xmlns:xlink="http://www.w3.org/1999/xlink" width="200" height="200"><defs><style type="text/css"></style></defs><path d="M0 146.31871v731.363149a146.37503 146.37503 0 0 0 122.823043 144.440809 21.276433 21.276433 0 0 0 23.495098-21.674655V23.780111a22.300432 22.300432 0 0 0-27.022207-21.333321A146.37503 146.37503 0 0 0 0 146.31871zM877.68129 23.552556v150.641694a48.867528 48.867528 0 0 1-83.285287 34.759092l-26.965318-26.737763a51.199972 51.199972 0 0 0-72.248849 0l-26.510207 26.567096a48.924417 48.924417 0 0 1-83.569732-34.588425V21.561446A21.731543 21.731543 0 0 0 563.199687 0.000569H241.208755a21.731543 21.731543 0 0 0-21.731544 21.731543v980.536345A21.731543 21.731543 0 0 0 241.208755 1024h614.797881A167.992796 167.992796 0 0 0 1023.999431 856.007204V146.31871A146.37503 146.37503 0 0 0 901.176388 1.877901a21.276433 21.276433 0 0 0-23.495098 21.674655z m-36.579535 525.027264H402.26111A36.579535 36.579535 0 0 1 365.681575 512.000284a36.579535 36.579535 0 0 1 36.579535-36.579535h438.897534a36.579535 36.579535 0 0 1 36.579535 36.579535 36.579535 36.579535 0 0 1-36.636424 36.579536z m0 180.67901H402.26111a36.579535 36.579535 0 0 1-36.579535-36.579535 36.579535 36.579535 0 0 1 36.579535-36.579535h438.897534a36.579535 36.579535 0 0 1 36.579535 36.579535 36.579535 36.579535 0 0 1-36.636424 36.579535z" fill="#D0E8F2" p-id="3571"></path></svg>