<?xml version="1.0" standalone="no"?><!DOCTYPE svg PUBLIC "-//W3C//DTD SVG 1.1//EN" "http://www.w3.org/Graphics/SVG/1.1/DTD/svg11.dtd"><svg t="1574044903402" class="icon" viewBox="0 0 1024 1024" version="1.1" xmlns="http://www.w3.org/2000/svg" p-id="3014" xmlns:xlink="http://www.w3.org/1999/xlink" width="200" height="200"><defs><style type="text/css"></style></defs><path d="M1023.43168 912.440889V271.018667a65.479111 65.479111 0 0 0-71.281778-71.224889H550.229902a63.146667 63.146667 0 0 1-37.034666-11.377778s-17.066667-28.444444-48.469334-73.955556c-28.444444-51.2-65.536-42.780444-65.536-42.780444H88.405902A82.887111 82.887111 0 0 0 0.057458 154.339556v752.583111c0 94.094222 71.224889 82.602667 71.224889 82.602666H960.853902c73.955556-0.170667 62.577778-77.084444 62.577778-77.084444zM259.470791 749.795556a54.158222 54.158222 0 0 1 0-108.088889 54.158222 54.158222 0 1 1 0 108.088889z m0-202.410667a52.394667 52.394667 0 0 1-54.158222-54.158222 54.158222 54.158222 0 1 1 54.158222 54.158222z m530.204445 199.566222H447.602347a51.2 51.2 0 1 1 0-102.4h342.072889a51.2 51.2 0 1 1 0 102.4z m0-202.353778H447.602347a51.2 51.2 0 1 1 0-102.4h342.072889a51.2 51.2 0 1 1 0 102.4z" fill="#D0E8F2" p-id="3015"></path></svg>