<?xml version="1.0" standalone="no"?><!DOCTYPE svg PUBLIC "-//W3C//DTD SVG 1.1//EN" "http://www.w3.org/Graphics/SVG/1.1/DTD/svg11.dtd"><svg t="1574045390123" class="icon" viewBox="0 0 1024 1024" version="1.1" xmlns="http://www.w3.org/2000/svg" p-id="4016" xmlns:xlink="http://www.w3.org/1999/xlink" width="200" height="200"><defs><style type="text/css"></style></defs><path d="M822.840889 1024H210.090667A153.6 153.6 0 0 1 56.888889 870.4V153.6A153.6 153.6 0 0 1 210.090667 0h612.750222a153.6 153.6 0 0 1 153.201778 153.6v716.8a153.6 153.6 0 0 1-153.201778 153.6z m-536.177778-307.2a51.2 51.2 0 0 0 0 102.4h459.605333a51.2 51.2 0 0 0 0-102.4z m408.519111-256a51.2 51.2 0 0 0 0 102.4h51.2a51.2 51.2 0 0 0 0-102.4z m-408.519111 0a51.2 51.2 0 0 0 0 102.4h204.174222a51.2 51.2 0 0 0 0-102.4z m0-256a51.2 51.2 0 0 0 0 102.4h459.605333a51.2 51.2 0 0 0 0-102.4z" fill="#D0E8F2" p-id="4017"></path></svg>