<svg xmlns="http://www.w3.org/2000/svg" xmlns:xlink="http://www.w3.org/1999/xlink" width="18" height="18.001" viewBox="0 0 18 18.001">
  <defs>
    <style>
      .cls-1 {
        fill: none;
      }

      .cls-2 {
        clip-path: url(#clip-path);
      }

      .cls-3 {
        fill: #d0e8f2;
      }
    </style>
    <clipPath id="clip-path">
      <path id="Clip_2" data-name="Clip 2" class="cls-1" d="M0,18V0H16.158V18Z"/>
    </clipPath>
  </defs>
  <g id="申报协同" transform="translate(0 0.001)">
    <rect id="矩形_3404" data-name="矩形 3404" class="cls-1" width="18" height="18" transform="translate(0 -0.001)"/>
    <g id="Page_1" data-name="Page 1" transform="translate(1)">
      <path id="Clip_2-2" data-name="Clip 2" class="cls-1" d="M0,18V0H16.158V18Z"/>
      <g id="Page_1-2" data-name="Page 1" class="cls-2">
        <path id="Fill_1" data-name="Fill 1" class="cls-3" d="M13.464,18H2.693A2.7,2.7,0,0,1,0,15.3V2.7A2.7,2.7,0,0,1,2.693,0H13.464a2.7,2.7,0,0,1,2.693,2.7V15.3A2.7,2.7,0,0,1,13.464,18ZM4.039,12.6a.9.9,0,0,0,0,1.8h8.079a.9.9,0,0,0,0-1.8ZM11.22,8.1a.9.9,0,0,0,0,1.8h.9a.9.9,0,0,0,0-1.8Zm-7.181,0a.9.9,0,0,0,0,1.8H7.628a.9.9,0,0,0,0-1.8Zm0-4.5a.9.9,0,0,0,0,1.8h8.079a.9.9,0,0,0,0-1.8Z" transform="translate(0 0)"/>
      </g>
    </g>
  </g>
</svg>
