<svg xmlns="http://www.w3.org/2000/svg" width="18.001" height="18.001" viewBox="0 0 18.001 18.001">
  <defs>
    <style>
      .cls-1 {
        fill: none;
      }

      .cls-2 {
        fill: #d0e8f2;
      }
    </style>
  </defs>
  <g id="需求管理" transform="translate(-10.999 -92)">
    <rect id="矩形_3404" data-name="矩形 3404" class="cls-1" width="18" height="18" transform="translate(11 92)"/>
    <g id="组_2926" data-name="组 2926" transform="translate(-102.09 73.502)">
      <path id="路径_6377" data-name="路径 6377" class="cls-2" d="M132.271,42.027h-12.6a.682.682,0,1,0,0,1.363h12.6a.682.682,0,1,0,0-1.363Z" transform="translate(-3.88 -6.891)"/>
      <g id="组_2925" data-name="组 2925" transform="translate(113.089 18.498)">
        <path id="路径_6378" data-name="路径 6378" class="cls-2" d="M126.909,23.565a.3.3,0,1,0,0,.592,1.587,1.587,0,0,1,1.062.434,1.382,1.382,0,0,1,.5,1.081.312.312,0,0,0,.624,0,1.918,1.918,0,0,0-.662-1.534A2.255,2.255,0,0,0,126.909,23.565Z" transform="translate(-117.411 -20.119)"/>
        <path id="路径_6379" data-name="路径 6379" class="cls-2" d="M129.09,18.5h-14a2,2,0,0,0-2,2v11a2,2,0,0,0,2,2h14a2,2,0,0,0,2-2v-11A2,2,0,0,0,129.09,18.5Zm-5.971,11.651-.757.365a.746.746,0,0,1-.565,0l-.732-.366a.1.1,0,0,1,.044-.188h1.967A.1.1,0,0,1,123.119,30.149Zm.549-.781H120.55a.3.3,0,1,1,0-.591h3.118a.3.3,0,1,1,0,.591Zm2.143-4.324c-.024.023-.019.069-.019.092l-.058.333c-.024,0-.02.033-.02.056-.039.124-.078.235-.117.333v.018l-.02.018a3.1,3.1,0,0,1-.156.351c0,.014,0,.019-.02.019a2.842,2.842,0,0,1-.214.351c-.078.111-.16.222-.253.333l-.01.01-.01.009a2.879,2.879,0,0,1-.273.259.178.178,0,0,0-.029.018c-.049.032-.054.06-.107.111-.024,0-.058.014-.058.037l-.185.139-.039.027-.029.019a.817.817,0,0,0-.254.3.835.835,0,0,1-.156.241.432.432,0,0,1-.292.073h-2.807a.43.43,0,0,1-.292-.073.937.937,0,0,1-.166-.241,1.028,1.028,0,0,0-.243-.3.049.049,0,0,1-.039-.019l-.029-.027-.186-.139-.058-.037-.078-.074-.058-.055-.273-.259-.01-.009-.01-.01a4.332,4.332,0,0,1-.468-.683c-.014,0-.02,0-.02-.019a3.362,3.362,0,0,1-.156-.351c-.014,0-.019,0-.019-.018v-.018q-.059-.146-.117-.333a.189.189,0,0,1-.01-.028l-.01-.028a2.647,2.647,0,0,1-.058-.333c0-.023-.02-.069-.02-.092a3.884,3.884,0,0,1-.019-.407h0a3.348,3.348,0,0,1,1.091-2.5,3.67,3.67,0,0,1,2.641-1.044,3.713,3.713,0,0,1,2.65,1.044,3.323,3.323,0,0,1,1.1,2.5A3.686,3.686,0,0,1,125.811,25.044Z" transform="translate(-113.089 -18.498)"/>
      </g>
    </g>
  </g>
</svg>
