<svg xmlns="http://www.w3.org/2000/svg" width="18" height="18" viewBox="0 0 18 18">
  <defs>
    <style>
      .cls-1 {
        fill: none;
      }

      .cls-2 {
        fill: #d0e8f2;
      }
    </style>
  </defs>
  <g id="研发费用管理" transform="translate(-11 -92)">
    <rect id="矩形_3404" data-name="矩形 3404" class="cls-1" width="18" height="18" transform="translate(11 92)"/>
    <path id="路径_6386" data-name="路径 6386" class="cls-2" d="M168.179,40.416H163.39c-5.3,0-6.6,9.941-6.6,9.961h0A2.647,2.647,0,0,0,159.264,53h13.044a2.647,2.647,0,0,0,2.478-2.622h0c-.006-.024-1.312-9.961-6.607-9.961Zm.511,7.657a.591.591,0,0,1,.607.505.564.564,0,0,1-.575.6h-2.343a.005.005,0,0,0-.005.005v1.447a.569.569,0,0,1-.631.552.581.581,0,0,1-.523-.579V49.187a.005.005,0,0,0-.005-.005h-2.327a.591.591,0,0,1-.607-.505.564.564,0,0,1,.575-.6h2.358a.005.005,0,0,0,.005-.005v-.692a.005.005,0,0,0-.005-.005h-2.358a.554.554,0,1,1,0-1.106h1.59a.005.005,0,0,0,0-.007l-1.632-2.772a.539.539,0,0,1,.213-.756.593.593,0,0,1,.79.2l1.969,3.334h.1l1.969-3.334a.59.59,0,0,1,.79-.2.541.541,0,0,1,.213.756l-1.631,2.772a0,0,0,0,0,0,.007h1.456a.591.591,0,0,1,.607.508.562.562,0,0,1-.575.6h-2.343a.005.005,0,0,0-.005.005v.692a.005.005,0,0,0,.005.005Zm-5.3-8.557h4.539c1.4,0,2.469-2.886,2.478-2.912h0c0-.873-.093-1.53-1.651-1.578s-1.935,1.042-3.056,1.042c-1.148,0-1.725-.856-3.138-1.042-1-.132-1.412.277-1.567.837a1.8,1.8,0,0,0,.114,1.216C161.482,37.9,162.342,39.516,163.39,39.516Z" transform="translate(-145.786 57)"/>
  </g>
</svg>
