<svg xmlns="http://www.w3.org/2000/svg" width="18" height="18" viewBox="0 0 18 18">
  <defs>
    <style>
      .cls-1 {
        fill: none;
      }

      .cls-2 {
        fill: #d0e8f2;
      }
    </style>
  </defs>
  <g id="风险管理" transform="translate(-11 -92)">
    <rect id="矩形_3404" data-name="矩形 3404" class="cls-1" width="18" height="18" transform="translate(11 92)"/>
    <path id="路径_6380" data-name="路径 6380" class="cls-2" d="M171.658,19.4a14.04,14.04,0,0,1-6.972-2.032,1.85,1.85,0,0,0-1.929,0,13.848,13.848,0,0,1-6.935,2.029,1.05,1.05,0,0,0-1.085.966v6.71a7.447,7.447,0,0,0,2.074,4.232,11.944,11.944,0,0,0,6.717,3.773.821.821,0,0,0,.207.017h.02a1.183,1.183,0,0,0,.187-.017,11.922,11.922,0,0,0,6.72-3.773,7.431,7.431,0,0,0,2.074-4.232v-6.71A1.041,1.041,0,0,0,171.658,19.4Zm-9.345,1.092H164.9V27.4h-2.592Zm1.3,11.282a1.463,1.463,0,0,1-1.472-1.451v0a1.472,1.472,0,1,1,1.472,1.456Z" transform="translate(-143.736 74.902)"/>
  </g>
</svg>
