<?xml version="1.0" standalone="no"?><!DOCTYPE svg PUBLIC "-//W3C//DTD SVG 1.1//EN" "http://www.w3.org/Graphics/SVG/1.1/DTD/svg11.dtd"><svg t="1574045354275" class="icon" viewBox="0 0 1024 1024" version="1.1" xmlns="http://www.w3.org/2000/svg" p-id="3905" xmlns:xlink="http://www.w3.org/1999/xlink" width="200" height="200"><defs><style type="text/css"></style></defs><path d="M1001.813333 431.217778c-6.371556-31.630222-24.917333-51.996444-48.241777-51.996445h-4.778667a125.155556 125.155556 0 0 1-124.131556-125.155555 139.605333 139.605333 0 0 1 11.377778-47.672889 66.218667 66.218667 0 0 0-22.300444-79.644445l-1.592889-1.080888L686.478222 55.466667l-1.592889-0.512a62.577778 62.577778 0 0 0-27.022222-5.347556 73.557333 73.557333 0 0 0-51.2 20.878222 177.379556 177.379556 0 0 1-98.133333 55.751111 186.766222 186.766222 0 0 1-98.645334-56.263111 71.736889 71.736889 0 0 0-51.2-21.447111 77.255111 77.255111 0 0 0-26.510222 4.835556l-1.592889 0.512-129.365333 71.793778-1.592889 1.080888a66.503111 66.503111 0 0 0-22.243555 79.303112 139.662222 139.662222 0 0 1 11.377777 47.672888 125.155556 125.155556 0 0 1-124.074666 125.155556h-4.778667c-23.893333 0-42.951111 20.366222-48.298667 51.996444a649.386667 649.386667 0 0 0-10.581333 100.181334 729.941333 729.941333 0 0 0 10.581333 100.181333c6.371556 31.630222 24.917333 51.996444 48.298667 51.996445h5.290667a125.155556 125.155556 0 0 1 124.074666 125.155555 127.374222 127.374222 0 0 1-11.377777 47.672889 66.218667 66.218667 0 0 0 22.300444 79.644444l1.080889 1.080889 123.050667 70.200889 1.592888 0.568889a62.008889 62.008889 0 0 0 26.510223 5.347556 67.811556 67.811556 0 0 0 51.2-22.755556 179.882667 179.882667 0 0 1 99.726222-58.936889 184.547556 184.547556 0 0 1 101.319111 60.017778 68.949333 68.949333 0 0 0 51.996444 22.755556 66.958222 66.958222 0 0 0 26.510223-5.347556l1.592889-0.512 127.829333-71.281778 1.592889-1.080889a66.446222 66.446222 0 0 0 22.300444-79.303111 139.605333 139.605333 0 0 1-11.377778-47.672889 125.155556 125.155556 0 0 1 124.131556-125.155555h4.778667c23.836444 0 42.951111-20.366222 48.810666-51.939556a665.6 665.6 0 0 0 10.581334-100.181333 694.954667 694.954667 0 0 0-11.377778-100.181333z m-498.517333 281.315555a181.077333 181.077333 0 1 1 179.256889-180.849777 180.280889 180.280889 0 0 1-179.256889 180.849777z" fill="#D0E8F2" p-id="3906"></path></svg>