<?xml version="1.0" standalone="no"?><!DOCTYPE svg PUBLIC "-//W3C//DTD SVG 1.1//EN" "http://www.w3.org/Graphics/SVG/1.1/DTD/svg11.dtd"><svg t="1574045329617" class="icon" viewBox="0 0 1024 1024" version="1.1" xmlns="http://www.w3.org/2000/svg" p-id="3459" xmlns:xlink="http://www.w3.org/1999/xlink" width="200" height="200"><defs><style type="text/css"></style></defs><path d="M248.519111 265.500444a265.443556 265.443556 0 0 0 530.887111 0 265.443556 265.443556 0 0 0-530.887111 0z m384.967111 280.519112H390.513778A382.976 382.976 0 0 0 7.537778 928.995556 95.061333 95.061333 0 0 0 102.599111 1024h818.858667a95.004444 95.004444 0 0 0 95.004444-95.061333 383.089778 383.089778 0 0 0-382.976-382.976z m-121.571555 421.831111l-76.686223-76.913778 52.792889-200.590222-45.511111-91.022223h139.264l-45.511111 91.022223 52.792889 200.590222z" fill="#D0E8F2" p-id="3460"></path></svg>