<?xml version="1.0" standalone="no"?>
<!DOCTYPE svg PUBLIC "-//W3C//DTD SVG 1.1//EN" "http://www.w3.org/Graphics/SVG/1.1/DTD/svg11.dtd" >
<!--
2013-9-30: Created.
-->
<svg>
<metadata>
Created by iconfont
</metadata>
<defs>

<font id="iconfont" horiz-adv-x="1024" >
  <font-face
    font-family="iconfont"
    font-weight="500"
    font-stretch="normal"
    units-per-em="1024"
    ascent="896"
    descent="-128"
  />
    <missing-glyph />
    
    <glyph glyph-name="baozhang" unicode="&#58925;" d="M511.112282-62.364116999999965c-41.442878 0-95.529727 23.514553-160.757311 69.885674-61.915142 44.017516-116.315122 95.743598-143.232169 122.660644-22.378683 22.375613-53.598732 82.887802-66.311265 348.878852-6.827499 142.842289-4.677533 278.530644-4.65502 279.884478l0.300852 18.11252 17.477047 4.767584c7.581676 2.068102 187.756221 50.649564 367.899044 50.649564 173.641759 0 340.823386-48.710398 347.854523-50.78464l17.152658-5.057179 0.152473-17.882276c0.011256-1.363044 1.082658-138.002051-6.29231-281.275151-13.737886-266.820951-43.572378-325.925071-64.819285-347.169931-20.920472-20.919449-76.640518-74.597999-142.058436-121.158431C607.151615-38.304141999999956 552.40678-62.364116999999965 511.112282-62.364116999999965zM184.214047 739.718631c-0.325411-41.638329-0.476861-147.973146 4.816702-258.574127 3.949962-82.547041 10.106172-151.198607 18.297738-204.049303 13.056364-84.237543 28.072359-106.937544 33.921577-112.784716 43.983747-43.982724 93.944626-86.793762 137.070842-117.453039 70.868047-50.381457 111.327528-60.95835 132.792399-60.95835 63.274092 0 184.646394 92.546789 270.643 178.533163 8.53028 8.532327 37.409005 56.503898 50.745754 315.524187 5.729491 111.282502 6.310729 218.46871 6.28924 260.140809C791.987321 752.332926 657.044956 784.210961 521.833461 784.210961 379.915217 784.210961 233.726717 751.790574 184.214047 739.718631zM384.624473 643.404028l-1.031493-4.941546c-6.045693-28.927843-17.984606-62.893422-35.486212-100.957343-17.538445-38.080294-39.258119-72.650647-64.554248-102.747105l-2.182712-2.595105 2.712785-2.038426c9.335622-7.007601 17.050328-15.911388 22.930245-26.463722l2.348488-4.214998 2.979868 3.793396c11.812023 15.035438 25.260314 35.129078 40.050158 59.83783l0-162.242128c0-38.500872-0.615007-68.012-1.826602-87.706551l-0.208754-3.406586 3.412726 0 36.627199 0 3.405563 0-0.201591 3.399423C392.391367 233.570919 391.77636 263.69602999999995 391.77636 302.6666L391.77636 538.347321c4.712325 12.941753 10.772344 27.464515 18.018376 43.173289 7.250124 15.692401 13.926174 27.840068 19.839861 36.102243l2.654456 3.710508-4.386914 1.246387c-16.598027 4.719488-29.7997 10.705829-39.240723 17.793248L384.624473 643.404028 384.624473 643.404028zM672.199097 619.0391070000001l-3.432169 0L461.820646 619.0391070000001l-3.483334 0 0.284479-3.473101c1.208525-14.728446 1.821485-37.437657 1.821485-67.4983 0-28.828582-0.615007-52.166103-1.823532-69.364811l-0.2415-3.436262 3.443425 0 81.033571 0 0-52.1835-64.552202 0c-23.14821 0-43.403532 0.613984-60.204174 1.823532l-3.440355 0.248663 0-3.449565 0-34.796504 0-3.442402 3.436262 0.2415c17.180288 1.208525 38.669718 1.822508 63.871703 1.822508l20.458961 0c-27.319206-54.104245-61.808718-92.723821-102.570073-114.838492l-5.89322-3.197832 6.186909-2.583848c14.007015-5.856381 24.615631-14.084787 31.531134-24.460088l1.987261-2.979868 2.745531 2.301416c42.23287 35.381835 77.997422 80.381725 106.442264 133.905756l0-98.480942c0-23.942295-0.615007-44.816718-1.823532-62.041008l-0.242524-3.434216 3.444449 0 38.458917 0 3.469008 0-0.26913 3.457752c-1.208525 15.60235-1.820462 37.70167-1.820462 65.679885L584.071967 364.184699c9.41851-19.955494 21.920242-40.018436 37.290301-59.823504 19.091824-24.666796 43.771923-45.290509 73.347518-61.289901l2.737344-1.482771 1.563612 2.691295c8.302083 14.261818 17.322527 25.697265 26.809599 33.992185l4.093225 3.579525-5.109368 1.855254c-26.347065 9.56996-49.377594 23.808242-68.453045 42.322921-17.938558 17.362436-32.383548 37.359886-42.990117 59.501162l26.102495 0c27.565822 0 52.148707-0.615007 73.070202-1.826602l3.39533-0.195451 0 3.400446L715.929064 421.70474l0 3.433192-3.427052-0.230244c-18.018376-1.211595-43.826158-1.825578-76.701916-1.825578l-51.730175 0 0 52.1835 84.697007 0 3.467985 0-0.268106 3.457752c-1.209548 15.58086-1.822508 37.679158-1.822508 65.681932 0 29.226648 0.615007 53.185316 1.824555 71.207785L672.199097 619.0391070000001 672.199097 619.0391070000001zM499.826238 583.316511l130.932028 0 0-72.329329-130.932028 0L499.826238 583.316511 499.826238 583.316511z"  horiz-adv-x="1024" />

    
    <glyph glyph-name="faren" unicode="&#58946;" d="M320 704a192 192 0 1 0 384 0 192 192 0 0 0-384 0z m448.064-256h-35.392l-199.104-404.224L608 416 512 512 416 416l74.432-372.224L291.328 448h-35.456c-127.936 0-127.936-86.016-127.936-192v-320h768v320c0 105.984 0 192-127.936 192z"  horiz-adv-x="1024" />

    
    <glyph glyph-name="youxiang" unicode="&#58884;" d="M149.6 724.2h691.9c47.2 0 85.9-37.7 86.5-83.9L495.7 403 63.5 640c0.4 46.4 38.8 84.2 86.1 84.2z m-86.1-175l-0.4-419.6c0-46.7 38.9-84.9 86.5-84.9h691.9c47.6 0 86.5 38.2 86.5 84.9V549.4L505.9 323.2c-6.5-3.5-14.3-3.5-20.7 0l-421.7 226z"  horiz-adv-x="1024" />

    
    <glyph glyph-name="xiangmu" unicode="&#58887;" d="M512-36.864l-439.808 201.728c1.536-1.024-38.912 17.408-67.584 33.792 0-24.576 6.144-69.12 29.184-81.408l430.592-192.512c37.888-17.92 54.272-17.92 95.744 0l430.592 192.512c20.992 9.728 29.184 56.32 29.184 81.408-27.648-13.824-67.072-33.28-67.584-33.792l-440.32-201.728zM33.792 520.704l430.592-192.512c37.888-17.92 54.272-17.92 95.744 0l430.592 192.512c31.744 14.848 32.768 77.312 0 95.232l-430.592 226.304c-33.792 19.968-57.856 18.944-95.744 0L33.792 615.936c-33.28-20.992-34.304-77.312 0-95.232zM512 803.84c0.512 0 1.024-0.512 1.024-0.512L951.808 568.32 512 384 72.192 568.32 512 803.84zM513.024 803.328l-1.024 0.512c2.56-3.072 2.56-1.536 1.024-0.512zM33.792 318.976l430.592-192.512c37.888-17.92 54.272-17.92 95.744 0l430.592 192.512c20.992 9.728 29.184 56.32 29.184 81.408-27.648-13.824-67.072-33.28-67.584-33.792l-440.32-201.728-439.808 201.728c1.536-1.024-38.912 17.408-67.584 33.792 0-24.576 6.144-69.12 29.184-81.408z"  horiz-adv-x="1024" />

    
    <glyph glyph-name="zaixiankefu" unicode="&#59126;" d="M866.575086 461.264735c0 194.090487-180.02412 351.989703-401.315108 351.989702-221.263359 0-401.287479-157.899216-401.287479-351.989702 0-108.500133 57.523111-211.490785 154.545842-277.869589v-75.30408c0-22.018479 12.637832-42.795689 31.818682-52.710502 8.990768-4.88731 19.114336-7.465019 29.237905-7.465019 12.141528 0 23.873734 3.490497 32.497135 9.479909l46.337351 30.357402c1.043772 0.651846 2.563382 1.61887 4.28049 3.039219l35.759435 23.536043c22.444175-3.356444 44.890396-5.053086 66.809615-5.053086 221.292012 0.001023 401.316132 157.898193 401.316132 351.989703zM465.266118 155.379069c-22.310122 0-45.252647 1.972934-68.195172 5.863545a23.418362 23.418362 0 0 1-16.71366-3.509941l-44.614104-29.38833a21.309328 21.309328 0 0 1-2.563382-1.969865c0.027629 0.033769 0.027629 0.056282 0.027629 0.056282-0.045025 0-0.343831-0.196475-1.045819-0.632403l-46.131666-30.255071c-1.542122-1.037632-7.906064-2.727111-13.885242 0.515746-4.257977 2.219551-7.245008 7.163143-7.245008 12.033058v87.654362c0.004093 7.849782-4.0175 15.163351-10.666944 19.402909-90.090854 57.471946-143.879921 149.4815-143.879921 246.115374 0 168.661328 159.211095 305.885666 354.905102 305.885665 195.721637 0 354.932732-137.224338 354.932732-305.885665S660.981614 155.379069 465.266118 155.379069zM324.923766 507.6993c-22.011316 0-39.9642-17.775852-39.964201-39.561018 0-21.787212 17.952884-39.562041 39.964201-39.562041 22.005176 0 39.95806 17.775852 39.95806 39.562041 0 21.785166-17.952884 39.561018-39.95806 39.561018z m149.33926 0c-22.005176 0-39.9642-17.775852-39.964201-39.561018 0-21.787212 17.958-39.562041 39.964201-39.562041 22.007223 0 39.9642 17.775852 39.9642 39.562041 0 21.785166-17.955954 39.561018-39.9642 39.561018z m149.340283 0c-22.005176 0-39.962154-17.775852-39.962154-39.561018 0-21.787212 17.956977-39.562041 39.962154-39.562041 22.011316 0 39.9642 17.775852 39.9642 39.562041 0 21.785166-17.952884 39.561018-39.9642 39.561018z m329.451384-168.889525c-4.194532 17.090237-10.403954 34.232662-18.516726 50.948369-5.65786 11.6749-19.660782 16.533558-31.348985 10.870582-11.665691-5.66707-16.519232-19.742646-10.861372-31.419594 6.644327-13.729699 11.754718-27.714202 15.122419-41.524742 3.737114-15.490809 5.641487-31.847336 5.641487-48.631604 0-71.375607-38.892799-140.161227-104.040565-183.989431a23.52581 23.52581 0 0 1-10.381441-19.515472v-59.953464c0-4.881171-2.432399-9.356089-6.580882-12.274558-7.263427-2.341325-12.005428-2.044566-16.384156 0.907673l-33.206286 21.859867a25.157983 25.157983 0 0 1-2.77009 2.182712l-28.876677 19.461237a23.484877 23.484877 0 0 1-16.84362 3.703345c-65.518203-10.595312-129.455397-0.410346-184.866405 29.403681a23.385617 23.385617 0 0 1-17.880229 1.820461 23.443945 23.443945 0 0 1-13.907755-11.405771c-6.137791-11.437493-1.852184-25.694195 9.559727-31.838125 61.965284-33.326013 132.731-45.642526 205.285456-35.781948l18.815531-12.69923c2.382257-2.269693 4.764514-3.731998 6.414084-4.626367l32.382524-21.298072c10.039657-6.712889 21.794375-10.263761 34.006512-10.263761 8.389064 0 17.024745 1.680269 26.421766 5.109367a23.215748 23.215748 0 0 1 3.485381 1.618871c19.660782 11.116175 31.872918 31.847336 31.872918 54.121641v47.739281c71.889307 52.794413 114.426099 132.574435 114.426099 215.719087 0.002047 20.50194-2.335185 40.593534-6.968715 59.755965z"  horiz-adv-x="1024" />

    
    <glyph glyph-name="enterprise" unicode="&#59593;" d="M864 64h-32V544c0 19.2-12.8 32-32 32h-160V736c0 19.2-12.8 32-32 32H224c-19.2 0-32-12.8-32-32v-672H160c-19.2 0-32-12.8-32-32s12.8-32 32-32h704c19.2 0 32 12.8 32 32s-12.8 32-32 32z m-96 448v-448h-128V512h128zM256 704h320v-640H256V704zM352 576h128c19.2 0 32 12.8 32 32s-12.8 32-32 32h-128c-19.2 0-32-12.8-32-32s12.8-32 32-32zM704 352c19.2 0 32 12.8 32 32v32c0 19.2-12.8 32-32 32s-32-12.8-32-32v-32c0-19.2 12.8-32 32-32zM704 192c19.2 0 32 12.8 32 32v32c0 19.2-12.8 32-32 32s-32-12.8-32-32v-32c0-19.2 12.8-32 32-32zM480 512h-128c-19.2 0-32-12.8-32-32s12.8-32 32-32h128c19.2 0 32 12.8 32 32s-12.8 32-32 32zM480 384h-128c-19.2 0-32-12.8-32-32s12.8-32 32-32h128c19.2 0 32 12.8 32 32s-12.8 32-32 32zM480 256h-128c-19.2 0-32-12.8-32-32s12.8-32 32-32h128c19.2 0 32 12.8 32 32s-12.8 32-32 32z"  horiz-adv-x="1024" />

    
    <glyph glyph-name="huidaodingbu" unicode="&#58923;" d="M896.384 370.432l-353.536 355.84c-7.808 7.808-18.048 11.648-28.288 11.52-1.408 0.128-2.56 0.768-3.968 0.768-5.76 0-11.136-1.28-16-3.584-4.992-1.92-9.728-4.736-13.696-8.832L162.048 407.808c-15.36-15.36-15.488-40.32 0-55.68 7.68-7.68 17.792-11.52 27.904-11.52 10.112 0 20.096 3.84 27.776 11.52L471.424 605.44v-693.376c0-21.76 17.664-39.424 39.296-39.424 21.76 0 39.424 17.536 39.424 39.424V607.36l290.56-292.352c7.68-7.68 17.792-11.648 27.904-11.648 10.112 0 20.096 3.84 27.776 11.392 15.36 15.36 15.36 40.32 0 55.68zM943.616 817.28H77.824c-21.76 0-39.424 17.664-39.424 39.296C38.4 878.336 56.064 896 77.824 896h865.92c21.76 0 39.296-17.664 39.296-39.424 0-21.632-17.664-39.296-39.424-39.296z m0 0"  horiz-adv-x="1024" />

    
    <glyph glyph-name="fuwu" unicode="&#58896;" d="M800.427 276.26a24.936 24.936 0 0 0-20.702 11.011c-7.764 11.426-4.737 26.977 6.69 34.692C846.815 362.783 912 454.825 912 532.29c0 124.024-100.88 224.927-224.904 224.927-59.179 0-115.136-22.973-157.568-64.649a24.993 24.993 0 0 0-35.058 0c-42.383 41.699-98.34 64.649-157.52 64.649-124.023 0-224.952-100.903-224.952-224.927 0-85.742 47.656-162.841 124.365-201.245 12.354-6.177 17.335-21.216 11.183-33.545-6.2-12.402-21.24-17.31-33.545-11.182C120.252 333.267 62 427.506 62 532.291 62 683.878 185.34 807.218 336.95 807.218c64.504 0 125.83-22.266 175.05-63.16 49.268 40.894 110.595 63.16 175.097 63.16C838.66 807.217 962 683.877 962 532.291c0-95.142-75.05-202.71-147.559-251.733a24.944 24.944 0 0 0-14.014-4.298zM760.34 191.007c-20.606 0-39.942 8.032-54.493 22.583l-95.361 95.336c-9.766 9.766-9.766 25.586 0 35.352 9.766 9.765 25.587 9.765 35.351 0L741.2 248.94c10.253-10.253 28.028-10.228 38.281 0.025 10.547 10.523 10.547 27.71 0 38.257L505.75 553.287c-9.911 9.62-10.107 25.44-0.489 35.352 9.668 9.888 25.489 10.108 35.353 0.489l273.974-266.31c30.273-30.297 30.273-79.175 0.244-109.228-14.6-14.575-33.935-22.583-54.492-22.583zM695.936 107.46c-19.726 0-39.454 7.497-54.492 22.536l-48.731 48.755c-9.766 9.765-9.766 25.586 0 35.351 9.766 9.767 25.586 9.767 35.352 0l48.73-48.755c10.548-10.546 27.735-10.546 38.282 0 5.127 5.128 7.959 11.915 7.959 19.141 0 7.251-2.833 14.038-7.96 19.14L585.78 332.974c-9.766 9.767-9.766 25.587 0 35.352s25.587 9.765 35.352 0l129.297-129.322c14.551-14.551 22.607-33.91 22.607-54.516 0-20.581-8.057-39.94-22.607-54.517-15.039-15.014-34.766-22.51-54.492-22.51zM622.205 33.682c-20.606 0-39.94 8.033-54.492 22.583l-11.914 11.962c-9.766 9.767-9.766 25.587 0 35.353 9.765 9.716 25.585 9.766 35.352-0.049l11.913-11.939c10.255-10.204 28.028-10.228 38.282 0.025 10.547 10.547 10.547 27.758 0 38.306l-25.683 25.683c-9.766 9.766-9.766 25.586 0 35.351s25.586 9.766 35.352 0l25.683-25.683c30.03-30.054 30.03-78.955 0-109.01-14.552-14.55-33.888-22.582-54.493-22.582zM549.305-39.218c-20.606 0-39.94 8.033-54.492 22.583l-11.914 11.962c-9.766 9.767-9.766 25.587 0 35.353 9.765 9.716 25.585 9.766 35.352-0.049l11.913-11.939c10.255-10.204 28.028-10.228 38.282 0.025 10.547 10.547 10.547 27.758 0 38.306l-10.35 10.35c-9.765 9.765-9.765 25.584 0 35.35s25.588 9.766 35.353 0l10.35-10.35c30.029-30.053 30.029-78.954 0-109.008-14.553-14.55-33.889-22.583-54.494-22.583z m-280.86 258.472c-20.556 0-39.892 8.008-54.492 22.558-30.03 30.078-30.03 78.956 0 109.01l82.129 82.128c29.248 29.174 79.932 29.078 108.984 0 14.551-14.551 22.607-33.911 22.607-54.492s-8.057-39.941-22.607-54.517l-82.128-82.104c-14.55-14.551-33.886-22.583-54.492-22.583z m82.129 186.28c-7.226 0-14.013-2.833-19.14-7.96l-82.129-82.103c-10.546-10.547-10.546-27.735 0-38.282 10.254-10.205 28.027-10.254 38.282 0l82.129 82.129c5.126 5.127 7.958 11.914 7.958 19.14s-2.833 14.014-7.958 19.116c-5.128 5.151-11.915 7.96-19.142 7.96zM342.078 145.62c-20.557 0-39.892 8.009-54.492 22.56-30.03 30.053-30.03 78.93 0 109.008l82.129 82.129c29.248 29.174 79.883 29.1 109.032 0.024 30.03-30.078 30.03-78.955 0-109.009l-82.177-82.129c-14.55-14.55-33.887-22.583-54.492-22.583z m82.129 186.28c-7.227 0-14.014-2.833-19.14-7.96l-82.129-82.103c-10.546-10.547-10.546-27.735 0-38.282 10.255-10.205 28.028-10.253 38.282 0l82.178 82.129c10.547 10.547 10.547 27.735 0 38.281-5.128 5.103-11.915 7.935-19.19 7.935zM415.71 71.964c-20.556 0-39.892 8.008-54.492 22.559-30.03 30.077-30.03 78.978 0 109.032l82.178 82.129c29.053 29.053 79.737 29.174 108.984 0.024 30.03-30.078 30.03-78.955 0-109.009l-82.177-82.153c-14.551-14.55-33.886-22.582-54.492-22.582z m82.178 186.303c-7.226 0-14.013-2.808-19.14-7.934l-82.177-82.13c-10.547-10.546-10.547-27.758 0-38.304 10.253-10.205 28.028-10.254 38.281 0l82.178 82.153c10.547 10.547 10.547 27.734 0 38.281-5.128 5.102-11.915 7.934-19.14 7.934zM489.344-1.67c-20.558 0-39.893 8.01-54.493 22.56-30.03 30.077-30.03 78.955 0 109.009l82.178 82.153c29.053 29.077 79.785 29.15 108.984 0.023 30.03-30.102 30.03-78.978 0-109.009l-82.128-82.152c-14.6-14.576-33.936-22.583-54.541-22.583z m82.177 186.305c-7.226 0-14.013-2.808-19.14-7.935l-82.177-82.153c-10.547-10.547-10.547-27.734 0-38.281 10.253-10.205 28.075-10.18 38.329 0.024l82.13 82.129c10.546 10.547 10.546 27.734 0 38.281-5.128 5.102-11.915 7.935-19.142 7.935zM395.4 452.603c-20.558 0-39.894 8.009-54.492 22.559-30.03 30.078-30.03 78.955 0 109.009L494.91 728.628c10.01 9.4 25.878 8.96 35.303-1.123 9.472-10.083 8.984-25.903-1.124-35.353L375.672 548.257c-9.962-9.985-9.962-27.172 0.585-37.72 10.255-10.204 28.028-10.253 38.282 0l92.333 79.614c10.499 8.936 26.27 7.813 35.254-2.637 8.985-10.45 7.814-26.244-2.636-35.254l-90.967-78.345c-13.184-13.279-32.519-21.312-53.124-21.312z"  horiz-adv-x="1024" />

    
    <glyph glyph-name="wenjian" unicode="&#59036;" d="M293.7 260.3H643V304H293.7v-43.7z m291.1 247.4H293.7V464h291.1v43.7z m320.1 203.7v-43.7l-43.6 43.6v-1.2L816.4 755h1.1l-43.4 43.4 116.3 0.3h-684v-87.3h-87.3v-742.2h698.5v87.3h87.3V711.4z m-654.8 43.7h508.3l-6.1-6.1 37.5-37.5H250.1v43.6z m523.8-742.2H162.7V667.8h495l-4.6-4.6 120.8-120.8v-529.5z m43.7 567.6L686.7 711.1l130.8 0.3v-130.9z m43.7-480.3h-43.7V683.6l37.5-37.5 6.1 6.1v-552z m-567.6 262H643v43.7H293.7v-43.7z m0-203.8H643v43.7H293.7v-43.7z"  horiz-adv-x="1024" />

    
    <glyph glyph-name="shouji" unicode="&#58939;" d="M810.3 247.7V680.9c0 83.4-67.8 151.2-151.2 151.2H363.3c-83.4 0-151.2-67.8-151.2-151.2v-433.2h598.2zM212.1 179.4v-91.8c0-83.4 67.8-151.2 151.2-151.2h295.8c83.4 0 151.2 67.8 151.2 151.2v91.8H212.1zM511.2 3c-34.1 0-61.8 27.7-61.8 61.8 0 34.1 27.7 61.8 61.8 61.8s61.8-27.7 61.8-61.8c0-34.1-27.7-61.8-61.8-61.8z"  horiz-adv-x="1024" />

    
    <glyph glyph-name="xingbie" unicode="&#58885;" d="M416 674.4C416 743.1 360.1 799 291.4 799s-124.6-55.9-124.6-124.6 55.9-124.6 124.6-124.6S416 605.6 416 674.4zM227 539.6c-90.4-28.7-149.5-116-149.5-210.9v-150.4c0-7.4 6-13.4 13.4-13.4h72.3v-181.7c0-6.2 5-11.2 11.2-11.2h234.8c6.2 0 11.2 5 11.2 11.2V164.9h55.8c16.5 0 29.9 13.5 29.9 29.9V342c0.1 135.9-140.3 241.7-279.1 197.6z m646 93.2c0 68.7-55.9 124.6-124.6 124.6-68.7 0-124.6-55.9-124.6-124.6s55.9-124.6 124.6-124.6c68.7 0 124.6 55.9 124.6 124.6zM947 144.4l-63 247.4c-13.7 67.4-74 116.4-143.5 116.4s-129.8-49-143-114.1L534 144.4c-3.1-12.3-0.4-25.2 7.3-35.3 7.7-10.1 19.5-16 32.1-16.3 0 0 30.9-0.6 55.3-0.8 7.9-23.5 19.6-58.2 30.2-91.8 5.3-16.9 21-28.3 38.7-28.3h85.9c17.5 0 33.1 11.3 38.4 28.1 10.6 33.7 22.4 69.3 30.3 92.9 24.4 0.1 55.3 0.3 55.3 0.3 12.6 0.3 24.5 6 32.1 16.1 7.8 10.1 10.5 22.8 7.4 35.1z"  horiz-adv-x="1024" />

    
    <glyph glyph-name="password" unicode="&#58880;" d="M780.8 541.42H665.6v42.89c0 72.31-19.85 193.3-153.6 193.3-138.87 0-153.6-135.05-153.6-193.3v-42.89H243.2v42.89C243.2 773.75 348.79 896 512 896s268.8-122.25 268.8-311.69v-42.89z m-192-314.84c0 43.52-34.58 78.65-76.8 78.65s-76.8-35.13-76.8-78.65c0-29.46 15.4-54.47 38.44-67.82v-89.64c0-21.74 17.25-39.7 38.4-39.7s38.4 17.96 38.4 39.7v89.64c23 13.35 38.36 38.36 38.36 67.82zM896 384v-393.61c0-65.26-51.87-118.39-115.2-118.39H243.2c-63.291 0-115.2 53.13-115.2 118.39V384c0 65.22 51.87 118.39 115.2 118.39h537.6c63.33 0 115.2-53.17 115.2-118.39z"  horiz-adv-x="1024" />

    
    <glyph glyph-name="biaoqing" unicode="&#58883;" d="M512 674.909091c160.581818 0 290.909091-130.327273 290.909091-290.909091S672.581818 93.090909 512 93.090909 221.090909 223.418182 221.090909 384 351.418182 674.909091 512 674.909091M512 709.818182C332.8 709.818182 186.181818 563.2 186.181818 384s146.618182-325.818182 325.818182-325.818182 325.818182 146.618182 325.818182 325.818182S691.2 709.818182 512 709.818182zM681.890909 337.454545c-16.290909-79.127273-86.109091-139.636364-169.890909-139.636363s-155.927273 60.509091-169.890909 139.636363h339.781818m39.563636 34.909091H302.545455c0-116.363636 93.090909-209.454545 209.454545-209.454545s209.454545 93.090909 209.454545 209.454545zM384 500.363636c-18.618182 0-34.909091-16.290909-34.909091-34.909091s16.290909-34.909091 34.909091-34.90909 34.909091 16.290909 34.909091 34.90909-16.290909 34.909091-34.909091 34.909091zM640 500.363636c-18.618182 0-34.909091-16.290909-34.909091-34.909091s16.290909-34.909091 34.909091-34.90909 34.909091 16.290909 34.909091 34.90909-16.290909 34.909091-34.909091 34.909091z"  horiz-adv-x="1024" />

    
    <glyph glyph-name="chengben" unicode="&#59002;" d="M750.631385 490.338462a92.278154 92.278154 0 0 1-8.625231 19.298461l-5.198769 8.664615a94.523077 94.523077 0 0 1 19.022769 54.35077V683.323077a89.718154 89.718154 0 0 1-12.091077 45.686154l-1.732923 5.513846a61.912615 61.912615 0 0 1 5.198769 24.418461C747.204923 848.738462 556.937846 896 378.801231 896S10.397538 848.738462 10.397538 758.941538a57.107692 57.107692 0 0 1 5.159385-24.418461l-1.732923-5.513846A89.718154 89.718154 0 0 1 1.732923 683.323077v-110.670769a90.190769 90.190769 0 0 1 19.022769-54.35077l-5.198769-8.664615a99.249231 99.249231 0 0 1-13.824-47.655385v-110.276923a108.032 108.032 0 0 1 17.289846-54.744615l-5.198769-7.089231A99.052308 99.052308 0 0 1 0 242.609231v-110.670769c0-98.461538 166.045538-175.655385 377.068308-175.655385a923.214769 923.214769 0 0 1 122.80123 8.664615c-1.732923 3.544615-5.198769 7.089231-6.931692 10.633846A301.922462 301.922462 0 0 1 719.517538-128a310.311385 310.311385 0 0 1 31.113847 618.338462m-370.215385 342.252307c193.732923 0 311.138462-48.836923 311.138462-84.283077s-119.335385-84.283077-311.138462-84.283077c-193.693538 0-311.138462 49.230769-311.138462 84.283077s119.335385 84.283077 311.138462 84.283077m-318.227692-166.596923c57.068308-52.775385 188.534154-79.163077 316.534154-79.163077s259.426462 26.387692 316.494769 79.163077v-91.372308c0-63.409231-129.732923-133.513846-316.494769-133.513846S62.188308 511.212308 62.188308 574.621538V665.993846z m3.465846-210.707692c58.801231-57.895385 178.136615-94.916923 318.227692-94.916923a828.967385 828.967385 0 0 1 95.153231 7.089231 295.896615 295.896615 0 0 1-50.176-114.215385 215.355077 215.355077 0 0 1-5.198769-35.052308c-12.091077 0-25.915077-1.969231-38.045539-1.969231-186.801231 0-318.227692 70.498462-318.227692 133.513847l-1.732923 105.550769z m316.494769-430.473846c-188.494769 0-319.960615 57.895385-319.960615 112.246154v86.252307c58.801231-47.261538 179.869538-79.163077 319.960615-79.163077a268.918154 268.918154 0 0 1 39.778462 1.969231 254.424615 254.424615 0 0 1 31.15323-87.827692 111.104 111.104 0 0 1 20.755693-28.356923 841.846154 841.846154 0 0 0-91.687385-5.12m339.022769-89.403077a238.08 238.08 0 0 0-178.136615 78.769231 262.065231 262.065231 0 0 0-27.569231 35.446153 249.619692 249.619692 0 0 0-38.045538 133.12v1.969231a345.403077 345.403077 0 0 0 3.465846 42.141539 301.568 301.568 0 0 0 8.625231 37.021538 243.357538 243.357538 0 0 0 198.892307 165.021539 206.414769 206.414769 0 0 0 31.153231 1.575384h8.664615a247.374769 247.374769 0 0 0 235.204924-247.729231 242.884923 242.884923 0 0 0-242.136616-247.335384m188.534154 335.163077l-31.153231 31.901538a15.753846 15.753846 0 0 1-20.755692 0l-169.353846-172.110769-88.182154 89.403077a15.753846 15.753846 0 0 1-20.755692 0l-31.153231-31.507692a16.541538 16.541538 0 0 1 0-21.267693l128-131.544615a15.044923 15.044923 0 0 1 20.755692 0l212.676923 214.252308a15.950769 15.950769 0 0 1 0 20.873846"  horiz-adv-x="1024" />

    
    <glyph glyph-name="tuandui" unicode="&#58893;" d="M629.956 409.481c44.718 34.903 73.61 88.978 73.61 149.734 0 105.01-85.99 190.453-191.72 190.453s-191.72-85.444-191.72-190.453c0-60.756 28.886-114.83 73.609-149.734-117.862-46.786-201.415-161.14-201.415-294.66v-63.467c0-17.554 14.295-31.75 31.943-31.75h575.16c17.653 0 31.944 14.196 31.944 31.75V114.82c0.001 133.572-83.552 247.876-201.411 294.661zM373.152 559.466c0 75.995 62.198 137.774 138.694 137.774 76.492 0 138.693-61.78 138.693-137.774 0-75.976-62.2-137.774-138.693-137.774-76.496 0-138.694 61.773-138.694 137.774z m410.165-487.78h-542.97v33.713c0 148.708 121.79 269.705 271.523 269.705 149.68 0 271.447-120.997 271.447-269.705v-33.713zM264.212 380.05l6.24 1.489c13.4 4.453 22.945 16.136 22.945 29.858 0 13.253-8.924 24.586-21.575 29.36-34.212 15.44-56.284 49.323-56.284 86.663 0 42.311 36.768 77.958 75.251 90.315 6.737 20.659 16.928 39.777 29.904 56.681a214.079 214.079 0 0 0 7.137 10.963c-2.584 0.124-5.045 0.768-7.703 0.768-88.083 0-159.775-71.196-159.775-158.728 0-40.175 15.41-77.838 41.564-106.478C118.734 378.134 64.49 292.518 64.49 195.661v-49.096c0-17.553 14.296-31.745 31.944-31.745h57.25c0 21.75 2.24 35.695 6.44 56.208h-40.446V195.66c0 87.736 59.365 163.034 144.535 184.39z m557.213 40.892c26.155 28.64 41.565 66.303 41.565 106.478 0 87.533-71.67 158.756-159.776 158.756-2.66 0-5.12-0.649-7.704-0.771a213.392 213.392 0 0 0 7.137-10.963c12.978-16.904 23.167-36.022 29.881-56.683 38.484-12.352 80.57-48.004 80.57-90.314 0-37.341-22.101-71.248-56.284-86.664-12.655-4.77-21.58-16.107-21.58-29.36 0-13.723 9.574-25.406 22.946-29.853l6.24-1.493c85.199-21.38 144.536-96.655 144.536-184.413v-24.632h-45.79c4.225-20.514 6.44-34.458 6.44-56.209h57.25c17.677 0 31.945 14.192 31.945 31.745v49.096c0.052 96.856-54.193 182.472-137.376 225.28z m0 0"  horiz-adv-x="1024" />

    
    <glyph glyph-name="username" unicode="&#59199;" d="M492.642454 351.507762c138.576752 0 250.922119 112.345367 250.922119 250.924119 0 138.576752-112.344367 250.922119-250.922119 250.922119-138.578752 0-250.924119-112.345367-250.924119-250.923119 0-138.577752 112.345367-250.923119 250.924119-250.923119m329.666273-152.226433C763.454107 261.354874 743.657571 282.663375 635.847097 288.514238H349.42681c-107.810473-5.851863-127.607009-27.159363-186.461629-89.231909-62.510535-64.169496-112.295368-145.404592-88.694922-246.144231 26.184386-65.876456 96.935728-81.138098 163.83616-81.138098h509.062069c66.899432 0 137.699773 15.261642 163.885159 81.138098 23.599447 100.739639-26.185386 181.974735-88.74492 246.144231"  horiz-adv-x="1024" />

    
    <glyph glyph-name="yanzheng" unicode="&#58930;" d="M968.001605 678.76172c-1.088443 31.427238-27.273638 61.052915-58.175421 66.470109 0 0-120.104094 18.766265-187.500006 42.636954-84.172953 29.800828-167.457635 95.019854-167.457635 95.019853-26.010043 18.428472-65.756992 17.340029-89.965473-2.714853 0 0-58.888539-59.06369-168.896383-93.393444-93.218292-37.09465-169.296729-43.675353-181.33216-44.513579-1.176019-0.087576-2.339528-0.187663-3.503036-0.375326-29.913426-4.829185-55.247883-32.34053-55.78585-63.142225 0 0-4.1536-161.314811 1.088443-302.937556 1.989224-253.44466 304.201151-503.811653 457.0211-503.811653 150.292759 0 410.243057 174.50124 451.065939 500.196019 10.121272 193.104864 3.440482 306.515657 3.440482 306.515657zM831.258089 512.755342v1.451258L478.827638 184.34571a47.941551 47.941551 0 0 0-58.525724-5.604858l-9.207981 7.769234L216.350149 387.158988a47.916529 47.916529 0 0 0 2.890005 68.096519 48.792288 48.792288 0 0 0 68.646996-2.890005l160.051216-166.681963L765.325946 583.579225a48.792288 48.792288 0 0 0 68.646996-2.890005 47.703845 47.703845 0 0 0-2.714853-67.933878z m0 0"  horiz-adv-x="1024" />

    
    <glyph glyph-name="zhishichanquan" unicode="&#58960;" d="M256 725.333333a85.333333 85.333333 0 0 1-85.333333-85.333333v-512a85.333333 85.333333 0 0 1 85.333333-85.333333h512a85.333333 85.333333 0 0 1 85.333333 85.333333V640a85.333333 85.333333 0 0 1-85.333333 85.333333H256z m0 85.333334h512a170.666667 170.666667 0 0 0 170.666667-170.666667v-512a170.666667 170.666667 0 0 0-170.666667-170.666667H256a170.666667 170.666667 0 0 0-170.666667 170.666667V640a170.666667 170.666667 0 0 0 170.666667 170.666667zM341.333333 640h227.285334c52.138667 0 93.610667-11.477333 123.605333-35.157333 31.445333-25.813333 47.914667-63.104 47.914667-111.829334 0-26.538667-7.168-50.218667-21.461334-70.997333a110.933333 110.933333 0 0 0-65.024-45.226667v-1.408c44.288-10.026667 69.333333-39.424 75.050667-89.6l8.533333-82.474666c2.901333-31.573333 13.610667-56.661333 30.762667-75.306667h-90.752c-12.16 15.786667-19.328 37.973333-22.186667 66.688l-6.4 63.104c-2.858667 27.946667-11.434667 48.042667-25.728 60.245333-15.018667 12.885333-37.162667 18.645333-65.749333 18.645334h-132.266667V128H341.333333V640z m83.626667-71.68v-159.957333h132.224c32.853333 0 57.856 7.168 75.008 20.821333 15.744 14.336 23.594667 34.432 23.594667 60.245333 0 27.946667-7.850667 48.042667-23.594667 60.202667-15.701333 12.928-40.704 18.645333-75.008 18.645333h-132.266667z"  horiz-adv-x="1024" />

    
    <glyph glyph-name="chengguo" unicode="&#58945;" d="M914.602667 786.2272H177.493333A182.442667 182.442667 0 0 1 59.050667 743.185067c4.881067 54.818133 53.384533 98.133333 112.4352 98.133333h747.997866c15.837867 0 28.808533 12.288 28.808534 27.3408 0 15.018667-12.970667 27.3408-28.808534 27.3408H171.6224C77.6192 896 1.160533 823.3984 1.160533 734.139733v-96.938666c-0.7168-6.382933-1.160533-12.970667-1.160533-19.524267v-576.989867C0-52.39466700000003 79.7696-128 177.664-128h736.938667C1012.6336-128 1092.266667-52.25813300000004 1092.266667 40.686932999999954v576.853334c0 92.945067-79.7696 168.686933-177.664 168.686933z m105.6768-745.813333c0-55.364267-47.377067-100.352-105.6768-100.352H177.493333c-58.299733 0-105.6768 44.987733-105.6768 100.352V617.540267c0 55.364267 47.377067 100.352 105.6768 100.352h736.938667c58.299733 0 105.6768-44.987733 105.6768-100.352v-577.1264zM687.240533 361.198933a188.074667 188.074667 0 0 1 32.0512 105.403734c0 104.994133-85.9136 190.464-191.488 190.464-105.506133 0-191.453867-85.469867-191.453866-190.464 0-40.004267 12.458667-77.1072 33.723733-107.7248l-95.470933-229.102934a20.616533 20.616533 0 0 1 25.429333-27.477333l78.062933 24.746667 39.936-73.5232a20.616533 20.616533 0 0 1 18.193067-10.8544h0.989867a20.753067 20.753067 0 0 1 18.090666 12.629333l73.762134 176.196267 73.762133-176.196267a20.753067 20.753067 0 0 1 18.090667-12.629333h0.989866c7.5776 0 14.6432 4.096 18.2272 10.8544l39.936 73.5232 78.0288-24.746667c7.748267-2.4576 16.042667-0.273067 21.538134 5.632a20.7872 20.7872 0 0 1 3.8912 21.845333z m-159.402666 240.913067c75.127467 0 136.192-60.757333 136.192-135.509333 0-74.752-61.064533-135.509333-136.192-135.509334-75.1616 0-136.192 60.757333-136.192 135.509334 0 74.752 61.0304 135.509333 136.192 135.509333z m-94.071467-491.008l-27.374933 50.551467a20.8896 20.8896 0 0 1-24.576 9.898666l-51.8144-16.4864 70.587733 169.437867a191.146667 191.146667 0 0 1 103.082667-46.728533z m242.688 60.3136a20.821333 20.821333 0 0 1-24.576-9.898667l-27.3408-50.551466-70.0416 167.082666a192.273067 192.273067 0 0 1 102.5024 48.128l71.2704-171.1104z"  horiz-adv-x="1092" />

    
    <glyph glyph-name="guanli" unicode="&#58995;" d="M567.317333 117.33333300000004a1109.845333 1109.845333 0 0 0-59.733333-0.341333 1128.106667 1128.106667 0 0 0-36.266667 1.28c16.64-19.029333 34.048-37.376 52.224-54.869333 15.274667 17.322667 29.866667 35.328 43.776 53.930666z m75.946667 5.205334c-24.149333-35.754667-49.493333-68.778667-75.434667-98.389334 59.050667-47.786667 114.005333-73.813333 155.221334-73.813333a67.242667 67.242667 0 0 1 39.424 11.264c34.048 23.808 45.482667 88.576 29.696 178.090667a586.069333 586.069333 0 0 1-2.048 10.666666c-45.056-12.885333-94.549333-22.186667-146.773334-27.818666z m-388.522667 30.634666a622.08 622.08 0 0 1-4.778666-36.778666c-8.96-90.538667 7.424-154.197333 43.008-175.018667 35.669333-20.821333 95.061333-1.365333 162.56 55.04 9.130667 7.68 18.090667 15.701333 26.709333 24.064a997.546667 997.546667 0 0 0-93.610667 105.301333 916.48 916.48 0 0 0-133.973333 27.306667z m-55.637333 18.346667a597.504 597.504 0 0 0-43.178667 18.176C54.549333 237.397333-1.258667 302.506667 0.021333 373.76c1.28 69.205333 56.661333 130.816 154.709334 174.08 7.850667 3.584 15.786667 6.826667 23.893333 9.898667a647.68 647.68 0 0 0-3.413333 17.92c-20.48 115.541333-1.536 201.130667 54.442666 240.469333 20.394667 14.250667 44.373333 21.333333 71.338667 21.333333 56.661333 0 124.416-31.573333 196.352-91.306666 19.370667 18.858667 38.912 35.754667 58.197333 50.176a27.904 27.904 0 0 0 40.277334-7.424 31.829333 31.829333 0 0 0-6.997334-42.666667 508.586667 508.586667 0 0 1-47.104-40.106667c32.085333-31.061333 63.573333-66.474667 93.610667-105.301333 47.189333-6.144 92.245333-15.36 133.973333-27.306667 3.584 22.016 5.802667 43.264 6.826667 63.317334a29.610667 29.610667 0 0 0 30.122667 29.184c15.957333-0.853333 28.245333-15.104 27.477333-32a637.696 637.696 0 0 0-8.874667-78.848c14.677333-5.546667 29.013333-11.605333 43.264-18.261334 101.290667-47.701333 157.184-112.810667 155.904-183.978666-1.28-69.205333-56.661333-130.816-154.709333-174.08-7.936-3.584-15.872-6.826667-23.893333-9.984 1.194667-5.973333 2.389333-11.946667 3.413333-17.92 20.48-115.370667 1.536-201.130667-54.528-240.384-20.224-14.250667-44.373333-21.333333-71.253333-21.333334-56.661333 0-124.416 31.573333-196.437334 91.306667-11.349333-11.093333-23.125333-21.76-35.242666-32-59.904-50.176-116.736-76.458667-165.888-76.458667-22.016 0-42.24 5.290667-60.245334 15.786667-58.88 34.304-84.309333 118.101333-72.789333 234.922667 1.706667 16.384 3.84 32.597333 6.656 48.810666z m181.674667 432.469333c24.149333 35.669333 49.493333 68.778667 75.434666 98.389334-59.050667 47.786667-114.005333 73.898667-155.221333 73.898666a66.645333 66.645333 0 0 1-39.424-11.349333c-33.962667-23.808-45.397333-88.576-29.610667-178.090667l1.962667-10.666666c45.141333 12.885333 94.72 22.186667 146.773333 27.818666z m76.032 5.205334a1070.08 1070.08 0 0 0 95.829333-0.938667 867.84 867.84 0 0 1-52.053333 54.784c-15.36-17.322667-29.866667-35.242667-43.776-53.76zM211.818667 231.76533300000006c9.728 39.082667 22.528 79.445333 38.058666 120.32a1004.202667 1004.202667 0 0 0-56.32 146.176c-5.717333-2.218667-11.178667-4.608-16.64-6.912-75.349333-33.365333-118.357333-77.141333-119.125333-118.869333-0.768-43.093333 43.093333-89.770667 121.6-126.805333 10.325333-4.864 21.162667-9.557333 32.426667-13.909334z m55.04-18.773333c23.637333-6.826667 47.530667-12.544 71.594666-17.152a1287.509333 1287.509333 0 0 0-52.053333 85.333333c-7.338667-22.442667-13.909333-45.226667-19.541333-68.096z m71.68 323.754667c-31.658667-5.12-61.866667-11.690667-90.026667-19.797334 8.533333-29.610667 19.456-60.16 32.426667-91.136 17.322667 37.973333 36.608 75.008 57.514666 110.933334z m74.154666 8.704a1206.613333 1206.613333 0 0 1-99.072-190.72 1186.218667 1186.218667 0 0 1 105.216-170.922667c37.034667-3.84 74.325333-5.802667 111.616-5.802667 27.562667 0 54.613333 1.024 81.066667 3.157334a1197.226667 1197.226667 0 0 1 98.986667 190.805333A1197.482667 1197.482667 0 0 1 605.290667 542.72c-29.866667 3.157333-59.904 5.034667-89.941334 5.632a987.648 987.648 0 0 1-102.656-2.901333z m330.496-244.565334c-17.408-38.058667-36.693333-75.093333-57.6-110.933333a766.293333 766.293333 0 0 1 90.026667 19.626667 882.346667 882.346667 0 0 1-32.426667 91.306666z m13.909334 212.650667a800 800 0 0 1-71.594667 17.237333c18.432-27.648 35.84-56.149333 52.053333-85.333333 7.338667 22.442667 13.909333 45.141333 19.626667 68.096z m55.04-18.688A1058.986667 1058.986667 0 0 0 773.994667 374.613333c23.552-49.664 42.581333-98.986667 56.405333-146.346666 5.632 2.218667 11.093333 4.522667 16.64 6.997333 75.349333 33.28 118.357333 77.056 119.125333 118.784 0.853333 43.178667-43.008 89.856-121.514666 126.805333a541.44 541.44 0 0 1-32.597334 13.994667zM682.346667 695.04a109.482667 109.482667 0 0 0-50.346667 95.402667C633.365333 849.066667 678.421333 896 733.888 896c55.466667 0 100.693333-46.933333 101.802667-105.557333 1.28-59.562667-43.264-108.970667-99.498667-110.250667a97.365333 97.365333 0 0 0-53.76 14.848z"  horiz-adv-x="1024" />

    
    <glyph glyph-name="linian" unicode="&#58973;" d="M510.02368 731.56608c-179.06176 0-323.09248-147.92192-323.09248-330.88 0-93.43488 35.03616-179.072 101.21216-241.34656l7.78752-7.78752h428.20096l7.7824 7.78752c66.18112 66.17088 101.21728 147.92704 101.21728 241.34656-0.00512 182.95296-144.03584 330.88-323.10784 330.88z m194.6368-529.41824h-393.1648c-50.60608 50.6112-77.85472 120.68352-77.85472 198.528C233.64096 556.39552 358.21056 680.96 510.01856 680.96s276.3776-124.56448 276.3776-280.27904c0.01536-73.9584-31.1296-144.03072-81.73568-198.53312zM323.17952 138.4448h373.69856v-46.71488H323.17952zM346.53696 78.11072h326.97856v-46.70464H346.53696zM362.10688 15.8208L420.50048-112.64h171.27424l62.28992 128.4608H362.10688z m202.4192-77.84448H451.64032l-15.56992 31.13472h144.0256l-15.56992-31.13472zM525.60384 750.53568V866.29376c0 11.67872-7.78752 19.46624-19.46624 19.46624s-19.46112-7.78752-19.46112-19.46624v-115.75808h38.92736zM40.81664 362.27584c-11.6736 0-19.456-7.7824-19.456-19.456 0-11.68896 7.7824-19.46112 19.456-19.46112h115.56352c-3.89632 11.67872-3.89632 27.24864-3.89632 38.92736H40.81664v-0.01024zM77.93664 623.09376c-11.6736 3.8912-23.36256 0-27.24864-7.7824-7.78752-11.67872-3.89632-23.35744 3.8912-27.25376L155.79136 529.664c3.8912 11.6736 11.6736 23.35744 15.56992 38.93248L77.93664 623.09376zM260.6848 815.48288c-3.89632 11.6736-19.46624 11.6736-27.24864 7.7824-7.7824-3.8912-11.6736-19.456-7.7824-27.25376l54.71232-98.96448c3.8912 3.89632 11.6736 3.89632 15.56992 7.7824 7.78752 3.89632 11.67872 7.78752 19.46112 11.67872L260.6848 815.48288zM959.1296 582.93248c7.7824 3.89632 11.67872 19.46112 7.7824 27.25376-3.8912 7.7824-19.45088 11.6736-27.24352 7.7824l-102.66112-61.056c3.91168-11.6736 11.68384-23.35744 15.58528-38.93248l106.53696 64.95232zM986.112 362.27584h-119.44448c0-15.5648-3.8912-27.2384-3.8912-38.92224h127.22176c11.67872 0 19.46624 7.77728 19.46624 19.456-0.00512 19.47648-15.5648 19.46624-23.35232 19.46624zM782.73024 796.01664c3.8912 7.78752 3.8912 23.35744-7.78752 27.25376-7.77216 3.89632-19.456 3.89632-23.35744-7.7824l-54.72256-98.9696c11.68896-7.7824 23.36256-11.6736 35.0464-19.46112l50.82112 98.95936zM312.07936 458.19904c-3.34336 0-6.6048 0.69632-9.69728 2.06336a23.86944 23.86944 0 0 0-12.68736 13.30688 23.90016 23.90016 0 0 0 0.44032 18.37568c34.17088 74.88512 99.50208 129.67936 179.24096 150.28736l3.33824 0.4864c1.55648 0.27136 2.97472 0.39936 4.3776 0.39936a23.84384 23.84384 0 0 0 22.88128-16.90112c3.87072-12.50816-3.11808-25.92768-15.56992-29.9264C417.90464 580.27008 363.008 535.1936 334.1568 472.73984c-3.9168-8.86272-12.5696-14.5408-22.07744-14.5408zM292.56192 385.792a25.22112 25.22112 0 0 0-25.19552 25.18528 25.22624 25.22624 0 0 0 25.19552 25.19552c13.89056 0 25.1904-11.30496 25.1904-25.19552s-11.29984-25.18528-25.1904-25.18528z"  horiz-adv-x="1024" />

    
    <glyph glyph-name="faren2" unicode="&#58906;" d="M257.755429 640a256 256 0 0 1 512 0 256 256 0 0 1-512 0z m371.273142-307.2h-234.057142a369.225143 369.225143 0 0 1-369.225143-369.225143A91.648 91.648 0 0 1 117.028571-128h789.942858a91.574857 91.574857 0 0 1 91.574857 91.648A369.371429 369.371429 0 0 1 629.028571 332.79999999999995z m-117.028571-406.747429l-73.947429 74.166858 51.2 193.389714-43.885714 87.771428h134.290286l-43.885714-87.771428 51.2-193.389714z"  horiz-adv-x="1024" />

    
    <glyph glyph-name="qiye" unicode="&#58907;" d="M1108.48-127.414857H45.641143A45.787429 45.787429 0 0 0 0-81.773714a45.714286 45.714286 0 0 0 45.641143 45.641143h1062.838857a45.787429 45.787429 0 0 0 45.641143-45.641143 45.787429 45.787429 0 0 0-45.641143-45.641143zM583.68 896H274.797714a97.206857 97.206857 0 0 1-97.28-97.28v-829.220571a97.28 97.28 0 0 1 97.28-97.28H583.68a97.28 97.28 0 0 1 97.353143 97.28V798.72A97.28 97.28 0 0 1 583.68 896z m-9.435429-553.837714a29.257143 29.257143 0 0 0-29.622857-29.257143H313.856a29.622857 29.622857 0 1 0 0 59.245714h230.765714a29.257143 29.257143 0 0 0 29.622857-29.988571z m0 144.237714a29.257143 29.257143 0 0 0-29.622857-29.257143H313.856a29.622857 29.622857 0 1 0 0 59.245714h230.765714a29.257143 29.257143 0 0 0 29.622857-29.988571z m0 144.457143a29.257143 29.257143 0 0 0-29.622857-29.257143H313.856a29.622857 29.622857 0 1 0 0 59.245714h230.765714a29.257143 29.257143 0 0 0 29.622857-29.988571zM870.765714 553.545143H668.598857A91.428571 91.428571 0 0 1 577.097143 462.043429v-498.468572a91.428571 91.428571 0 0 1 91.501714-91.501714h202.166857a91.428571 91.428571 0 0 1 91.501715 91.501714V462.043429a91.648 91.648 0 0 1-91.501715 91.501714z m-5.266285-352.182857H703.268571a22.308571 22.308571 0 0 0 0 44.617143h162.084572a22.308571 22.308571 0 0 0 0-44.617143z m21.942857 168.228571a21.942857 21.942857 0 0 0-21.942857-21.942857H703.268571a22.308571 22.308571 0 0 0 0 44.617143h162.084572a21.942857 21.942857 0 0 0 21.942857-21.942857z"  horiz-adv-x="1154" />

    
    <glyph glyph-name="xinyong" unicode="&#58908;" d="M1235.879936 896h-1116.16A125.5424 125.5424 0 0 1 0.116736 765.2352v-762.5728a125.5424 125.5424 0 0 1 119.6032-130.7648h1116.16a125.44 125.44 0 0 1 119.6032 130.7648V765.2352A125.44 125.44 0 0 1 1235.879936 896z m-79.7696-827.904H877.070336V220.56960000000004h279.04z m139.5712 435.8144H59.918336v174.08h1236.1728z"  horiz-adv-x="1355" />

    
    <glyph glyph-name="zijin" unicode="&#58909;" d="M924.735195 748.742878A570.310603 570.310603 0 0 0 535.096066 883.42392 54.910675 54.910675 0 0 1 509.285856 896a73.116744 73.116744 0 0 1-19.814638-5.922456A571.041771 571.041771 0 0 0 99.174038 755.396501 29.758515 29.758515 0 0 1 67.441371 727.758372a27.345662 27.345662 0 0 1 0-4.094538V230.637629c0-211.30739 166.413709-268.777151 319.666405-320.324455 31.732667-12.502963 70.703891-25.737094 108.943949-38.313174h31.732667c31.65955 12.57608 70.630775 25.737094 108.943948 38.313174 147.257122 51.181721 319.593288 108.943949 319.593288 320.324455V716.717744a29.758515 29.758515 0 0 1-27.565012 31.732667zM678.404884 283.135452a34.36487 34.36487 0 0 0 36.558372-31.513317 30.197215 30.197215 0 0 0 0-4.825705 40.945377 40.945377 0 0 0-43.870046-36.923956H546.282928v-81.305819a34.949804 34.949804 0 0 0-32.902535-36.923956 27.565012 27.565012 0 0 0-4.094537 0 34.36487 34.36487 0 0 0-36.923956 31.4402 32.610068 32.610068 0 0 0 0 5.483756V209.872474H346.82045a36.997072 36.997072 0 1 0-9.797643 73.116744 39.556159 39.556159 0 0 0 9.797643 0h125.468333v59.443913H346.82045a36.997072 36.997072 0 1 0-9.797643 73.116744 35.096037 35.096037 0 0 0 9.797643 0h125.468333v22.44684L332.343335 585.473188a35.096037 35.096037 0 0 0-2.047269 49.500036l2.047269 2.047269a35.754088 35.754088 0 0 0 50.450553 1.096751l1.096752-1.096751 125.468332-125.468333L634.827305 637.020493a36.558372 36.558372 0 0 0 51.181721-51.181721L547.964613 448.525527a29.246698 29.246698 0 0 0-1.974152-7.311675v-25.15216h132.121956a34.291753 34.291753 0 0 0 36.923956-31.4402 32.610068 32.610068 0 0 0 0-5.483755 40.945377 40.945377 0 0 0-43.870046-36.558372H546.282928v-59.443913z"  horiz-adv-x="1024" />

    
    <glyph glyph-name="shenbaoxietong" unicode="&#58911;" d="M822.840889-128H210.090667A153.6 153.6 0 0 0 56.888889 25.6V742.4A153.6 153.6 0 0 0 210.090667 896h612.750222a153.6 153.6 0 0 0 153.201778-153.6v-716.8a153.6 153.6 0 0 0-153.201778-153.6z m-536.177778 307.2a51.2 51.2 0 0 1 0-102.4h459.605333a51.2 51.2 0 0 1 0 102.4z m408.519111 256a51.2 51.2 0 0 1 0-102.4h51.2a51.2 51.2 0 0 1 0 102.4z m-408.519111 0a51.2 51.2 0 0 1 0-102.4h204.174222a51.2 51.2 0 0 1 0 102.4z m0 256a51.2 51.2 0 0 1 0-102.4h459.605333a51.2 51.2 0 0 1 0 102.4z"  horiz-adv-x="1024" />

    
    <glyph glyph-name="lixiangxietong" unicode="&#58913;" d="M475.380563 152.854021H198.232839a45.944883 45.944883 0 1 0 0 91.832904h277.204587a45.944883 45.944883 0 1 0 0-91.832904zM198.175976 434.948782h376.145301a45.944883 45.944883 0 1 0 0-91.832905H198.232839a45.944883 45.944883 0 1 0 0 91.832905z m0 196.801041h481.738926a45.944883 45.944883 0 1 0 0-91.832904H198.232839a45.944883 45.944883 0 1 0 0 91.832904z m336.512153-516.766213a264.410529 264.410529 0 0 0 266.798754 262.477205 177.695248 177.695248 0 0 0 56.862479-6.596048V744.849294A156.371818 156.371818 0 0 1 693.448172 895.762315h-528.252434a156.371818 156.371818 0 0 1-164.90119-150.913021v-721.698588A156.371818 156.371818 0 0 1 165.195738-127.762315h534.507307a267.253653 267.253653 0 0 0-164.901191 242.745925zM915.154979 169.855902l-12.680333-12.680332h-12.680333l-44.352734 44.352734v12.680332l12.680333 12.680333h12.850921l44.352734-44.352734z m-38.040999-37.984136l-120.377869-120.377869a22.233229 22.233229 0 0 0-12.680332-6.368597l-56.86248-6.311736c-6.311735 0-6.311735 0-6.311735 6.311736l6.311735 56.862479c0 6.311735 0 6.311735 6.368598 12.680333l120.377869 120.377869h12.680333l44.352734-44.352734c12.62347-12.680333 12.62347-12.680333 6.311735-18.992068z m-76.025135 171.042338a196.403004 196.403004 0 1 1 196.403004-196.403004 197.426529 197.426529 0 0 1-196.403004 196.403004z"  horiz-adv-x="1024" />

    
    <glyph glyph-name="qiye1" unicode="&#58914;" d="M973.425778-26.737778h-45.511111V381.155556a112.526222 112.526222 0 0 1-112.526223 112.526222h-278.755555V783.416889A112.526222 112.526222 0 0 1 424.277333 896H186.083556a112.526222 112.526222 0 0 1-112.526223-112.526222V-26.737778h-22.755555a50.631111 50.631111 0 0 1 0-101.262222h922.624a50.631111 50.631111 0 0 1 0 101.262222zM394.296889 577.422222H199.224889a43.178667 43.178667 0 0 0 0 86.300445h195.072a43.178667 43.178667 0 0 0 0-86.300445z m0-222.72H199.224889a43.121778 43.121778 0 1 0 0 86.243556h195.072a43.121778 43.121778 0 0 0 0-86.243556z m0-247.182222H199.224889a43.121778 43.121778 0 1 0 0 86.243556h195.072a43.121778 43.121778 0 0 0 0-86.243556z m310.840889 133.290667a32.426667 32.426667 0 0 0-32.369778 32.369777V376.775111a32.426667 32.426667 0 0 0 32.369778 32.369778 32.426667 32.426667 0 0 0 32.369778-32.369778v-103.594667a32.426667 32.426667 0 0 0-32.369778-32.654222z m0-193.934223a32.426667 32.426667 0 0 0-32.369778 32.369778v103.594667a32.426667 32.426667 0 0 0 32.369778 32.369778 32.426667 32.426667 0 0 0 32.369778-32.369778v-103.594667a32.426667 32.426667 0 0 0-32.369778-32.654222z"  horiz-adv-x="1024" />

    
    <glyph glyph-name="yanfa" unicode="&#58915;" d="M484.694568-127.997156a454.142486 454.142486 0 0 0-246.157402 72.248648 205.652648 205.652648 0 0 1 68.266439 153.030602 204.344208 204.344208 0 0 1-203.433989 204.799317 200.930886 200.930886 0 0 1-73.955309-14.051509A413.580844 413.580844 0 0 0 27.081871 332.801308a460.798464 460.798464 0 0 0 263.849787 417.563053 204.799317 204.799317 0 0 1 199.110447-161.563906 202.865102 202.865102 0 0 1 197.802008 157.069699A460.798464 460.798464 0 0 0 942.307264 332.801308c0-14.563507-0.682664-29.013237-1.934215-42.894079a201.158441 201.158441 0 0 1-69.176659 12.174182 205.083761 205.083761 0 0 1-137.386208-356.123258A453.51671 453.51671 0 0 0 484.694568-127.997156z m386.444934 122.879591a102.399659 102.399659 0 1 0 101.660105 102.399659 102.399659 102.399659 0 0 0-101.660105-102.399659z m-767.99744 0a102.399659 102.399659 0 1 0 101.660105 102.399659 102.399659 102.399659 0 0 0-101.489439-102.399659zM489.814551 691.200114a102.399659 102.399659 0 1 0 101.660105 102.399658 102.399659 102.399659 0 0 0-101.660105-102.399658z"  horiz-adv-x="1025" />

    
    <glyph glyph-name="yonghuzhongxin" unicode="&#58916;" d="M248.519111 630.499556a265.443556 265.443556 0 0 1 530.887111 0 265.443556 265.443556 0 0 1-530.887111 0z m384.967111-280.519112H390.513778A382.976 382.976 0 0 1 7.537778-32.995556 95.061333 95.061333 0 0 1 102.599111-128h818.858667a95.004444 95.004444 0 0 1 95.004444 95.061333 383.089778 383.089778 0 0 1-382.976 382.976z m-121.571555-421.831111l-76.686223 76.913778 52.792889 200.590222-45.511111 91.022223h139.264l-45.511111-91.022223 52.792889-200.590222z"  horiz-adv-x="1024" />

    
    <glyph glyph-name="zhengcexietong" unicode="&#58917;" d="M0 749.68129v-731.363149a146.37503 146.37503 0 0 1 122.823043-144.440809 21.276433 21.276433 0 0 1 23.495098 21.674655V872.219889a22.300432 22.300432 0 0 1-27.022207 21.333321A146.37503 146.37503 0 0 1 0 749.68129zM877.68129 872.447444v-150.641694a48.867528 48.867528 0 0 0-83.285287-34.759092l-26.965318 26.737763a51.199972 51.199972 0 0 1-72.248849 0l-26.510207-26.567096a48.924417 48.924417 0 0 0-83.569732 34.588425V874.438554A21.731543 21.731543 0 0 1 563.199687 895.999431H241.208755a21.731543 21.731543 0 0 1-21.731544-21.731543v-980.536345A21.731543 21.731543 0 0 1 241.208755-128h614.797881A167.992796 167.992796 0 0 1 1023.999431 39.992796V749.68129A146.37503 146.37503 0 0 1 901.176388 894.122099a21.276433 21.276433 0 0 1-23.495098-21.674655z m-36.579535-525.027264H402.26111A36.579535 36.579535 0 0 0 365.681575 383.999716a36.579535 36.579535 0 0 0 36.579535 36.579535h438.897534a36.579535 36.579535 0 0 0 36.579535-36.579535 36.579535 36.579535 0 0 0-36.636424-36.579536z m0-180.67901H402.26111a36.579535 36.579535 0 0 0-36.579535 36.579535 36.579535 36.579535 0 0 0 36.579535 36.579535h438.897534a36.579535 36.579535 0 0 0 36.579535-36.579535 36.579535 36.579535 0 0 0-36.636424-36.579535z"  horiz-adv-x="1024" />

    
    <glyph glyph-name="zhishichanquan1" unicode="&#58918;" d="M696.639263 892.133763H556.674431a44.190441 44.190441 0 0 1-46.749732-46.692859v-887.846807a44.190441 44.190441 0 0 1 46.749732-46.69286h140.135452a44.190441 44.190441 0 0 1 46.749732 46.69286V845.440904a44.190441 44.190441 0 0 1-46.920352 46.692859z m-23.374866-560.712425h-93.442592a23.374866 23.374866 0 0 0 0 46.692859h93.442592a23.374866 23.374866 0 0 0 0-46.692859z m0 140.135451h-93.442592a23.374866 23.374866 0 0 0 0 46.749733h93.442592a23.374866 23.374866 0 0 0 0-46.749733z m0 140.192325h-93.442592a23.374866 23.374866 0 0 0 0 46.749732h93.442592a23.374866 23.374866 0 0 0 0-46.749732z m0 140.192324h-93.442592a23.374866 23.374866 0 0 0 0 46.69286h93.442592a23.374866 23.374866 0 0 0 0-46.69286zM477.222635 854.369989L339.248364 893.15748a46.465367 46.465367 0 0 1-59.3187-26.901002L2.104307 12.192325a48.68342 48.68342 0 0 1 31.507727-59.034334l138.31551-43.45109a48.569674 48.569674 0 0 1 59.034334 31.507727L508.787236 795.278782A44.929792 44.929792 0 0 1 477.222635 854.369989zM310.982406 334.492488a24.17109 24.17109 0 0 0-31.848966-15.924483l-90.542061 27.469733a25.194807 25.194807 0 1 0 15.981356 47.77345l90.542061-27.469734a24.227964 24.227964 0 0 0 15.86761-31.848966z m43.621709 133.595039a26.673509 26.673509 0 0 0-32.076459-11.374631l-90.542061 27.469733a25.137934 25.137934 0 0 0 15.924483 47.716577l90.997047-32.133332a24.114217 24.114217 0 0 0 15.69699-31.678347z m43.45109 138.31551a24.114217 24.114217 0 0 0-31.792093-15.924483l-90.542061 27.469734a24.17109 24.17109 0 0 0-15.924484 31.848966 26.787256 26.787256 0 0 0 32.076459 11.374631l90.542061-27.469734a20.815574 20.815574 0 0 0 15.640118-27.355987z m43.678582 133.595039a24.114217 24.114217 0 0 0-31.848966-15.924483l-90.542061 27.469733a25.194807 25.194807 0 1 0 15.981356 47.77345l90.542061-27.469734a24.17109 24.17109 0 0 0 15.924483-31.905839zM977.023912 892.133763h-140.192324a44.133567 44.133567 0 0 1-46.69286-46.692859v-887.846807a44.133567 44.133567 0 0 1 46.69286-46.69286h140.192324a44.133567 44.133567 0 0 1 46.69286 46.69286V845.440904a44.133567 44.133567 0 0 1-46.69286 46.692859z m-23.374866-560.712425h-93.499465a23.374866 23.374866 0 1 0 0 46.692859h93.499465a23.374866 23.374866 0 0 0 0-46.692859z m0 140.135451h-93.499465a23.374866 23.374866 0 0 0 0 46.749733h93.499465a23.374866 23.374866 0 0 0 0-46.749733z m0 140.192325h-93.499465a23.374866 23.374866 0 0 0 0 46.749732h93.499465a23.374866 23.374866 0 0 0 0-46.749732z m0 140.192324h-93.499465a23.374866 23.374866 0 1 0 0 46.69286h93.499465a23.374866 23.374866 0 0 0 0-46.69286z"  horiz-adv-x="1024" />

    
    <glyph glyph-name="tongzhixietong" unicode="&#58919;" d="M888.242852 249.090628a127.166354 127.166354 0 0 0-27.52445 29.502594c-0.282592 0.621702-0.678221 1.130368-1.017331 1.808588v0.282592a466.389668 466.389668 0 0 0-31.254664 154.973397c-0.565184 6.499614-1.186886 12.942709-1.865107 19.442322a14.920852 14.920852 0 0 1 0 1.808589 552.975825 552.975825 0 0 1-91.785848 244.668064 290.447952 290.447952 0 0 1-153.051772 111.849874 82.008169 82.008169 0 0 1-163.620708 0A290.16536 290.16536 0 0 1 265.014682 701.633293a552.862788 552.862788 0 0 1-91.842367-244.83762v-1.582515l-1.865107-19.385804a466.785296 466.785296 0 0 0-31.424219-155.19947l-0.960812-1.695552a126.996799 126.996799 0 0 0-27.637488-29.728667 108.006623 108.006623 0 0 1-34.53273-147.682526 42.388785 42.388785 0 0 1 37.69776-22.607352h770.628104a42.445303 42.445303 0 0 1 37.641241 22.607352 108.006623 108.006623 0 0 1-34.476212 147.682526z m-291.352246-241.107407H405.97152a25.320234 25.320234 0 0 1-20.007506-8.195165 27.128822 27.128822 0 0 1-5.93443-21.703058 120.271112 120.271112 0 0 1 239.016227 1.41296 28.25919 28.25919 0 0 1-5.651838 21.476984 21.250911 21.250911 0 0 1-16.39033 6.951761z m0 0"  horiz-adv-x="1024" />

    
    <glyph glyph-name="xitongshezhi" unicode="&#58920;" d="M1001.813333 464.782222c-6.371556 31.630222-24.917333 51.996444-48.241777 51.996445h-4.778667a125.155556 125.155556 0 0 0-124.131556 125.155555 139.605333 139.605333 0 0 0 11.377778 47.672889 66.218667 66.218667 0 0 1-22.300444 79.644445l-1.592889 1.080888L686.478222 840.533333l-1.592889 0.512a62.577778 62.577778 0 0 1-27.022222 5.347556 73.557333 73.557333 0 0 1-51.2-20.878222 177.379556 177.379556 0 0 0-98.133333-55.751111 186.766222 186.766222 0 0 0-98.645334 56.263111 71.736889 71.736889 0 0 1-51.2 21.447111 77.255111 77.255111 0 0 1-26.510222-4.835556l-1.592889-0.512-129.365333-71.793778-1.592889-1.080888a66.503111 66.503111 0 0 1-22.243555-79.303112 139.662222 139.662222 0 0 0 11.377777-47.672888 125.155556 125.155556 0 0 0-124.074666-125.155556h-4.778667c-23.893333 0-42.951111-20.366222-48.298667-51.996444a649.386667 649.386667 0 0 1-10.581333-100.181334 729.941333 729.941333 0 0 1 10.581333-100.181333c6.371556-31.630222 24.917333-51.996444 48.298667-51.996445h5.290667a125.155556 125.155556 0 0 0 124.074666-125.155555 127.374222 127.374222 0 0 0-11.377777-47.672889 66.218667 66.218667 0 0 1 22.300444-79.644444l1.080889-1.080889 123.050667-70.200889 1.592888-0.568889a62.008889 62.008889 0 0 1 26.510223-5.347556 67.811556 67.811556 0 0 1 51.2 22.755556 179.882667 179.882667 0 0 0 99.726222 58.936889 184.547556 184.547556 0 0 0 101.319111-60.017778 68.949333 68.949333 0 0 1 51.996444-22.755556 66.958222 66.958222 0 0 1 26.510223 5.347556l1.592889 0.512 127.829333 71.281778 1.592889 1.080889a66.446222 66.446222 0 0 1 22.300444 79.303111 139.605333 139.605333 0 0 0-11.377778 47.672889 125.155556 125.155556 0 0 0 124.131556 125.155555h4.778667c23.836444 0 42.951111 20.366222 48.810666 51.939556a665.6 665.6 0 0 1 10.581334 100.181333 694.954667 694.954667 0 0 1-11.377778 100.181333z m-498.517333-281.315555a181.077333 181.077333 0 1 0 179.256889 180.849777 180.280889 180.280889 0 0 0-179.256889-180.849777z"  horiz-adv-x="1024" />

    
    <glyph glyph-name="shouye" unicode="&#58921;" d="M716.183879 10.173669a107.512653 107.512653 0 0 1-107.341999 106.318069H448.36929a107.512653 107.512653 0 0 1-107.626423-106.318069v-24.517436h375.441012zM934.90671 141.919333H89.083619A87.659788 87.659788 0 0 0 0.001707 230.034201v466.457014A89.821418 89.821418 0 0 0 93.236225 782.160028h837.460995A89.878303 89.878303 0 0 0 1023.931738 696.377445v-466.457014a87.659788 87.659788 0 0 0-89.025028-88.001098zM111.325655 720.212261V513.66282c0-11.377 16.325996-15.13141 23.322851-16.098456h0.45508s21.331876 0 21.331875 19.340901l-0.625735 203.306996z m89.025028 0v-123.952419a22.355806 22.355806 0 0 1 44.540956 0V661.563824 720.155376z"  horiz-adv-x="1024" />

    
    <glyph glyph-name="mianbaoxie" unicode="&#58922;" d="M195.047619 408.380952a48.761905 48.761905 0 1 0-48.761905-48.761904 48.761905 48.761905 0 0 0 48.761905 48.761904zM146.285714 603.428571m48.761905 0l633.904762 0q48.761905 0 48.761905-48.761904l0 0q0-48.761905-48.761905-48.761905l-633.904762 0q-48.761905 0-48.761905 48.761905l0 0q0 48.761905 48.761905 48.761904ZM292.571429 408.380952m48.761904 0l487.619048 0q48.761905 0 48.761905-48.761904l0 0q0-48.761905-48.761905-48.761905l-487.619048 0q-48.761905 0-48.761904 48.761905l0 0q0 48.761905 48.761904 48.761904ZM146.285714 213.333333m48.761905 0l633.904762 0q48.761905 0 48.761905-48.761904l0 0q0-48.761905-48.761905-48.761905l-633.904762 0q-48.761905 0-48.761905 48.761905l0 0q0 48.761905 48.761905 48.761904Z"  horiz-adv-x="1024" />

    
    <glyph glyph-name="jiantou" unicode="&#58924;" d="M644.339452 213.849277a95.96545 95.96545 0 0 0-94.417621 0L33.167782 517.555604C-29.740445 554.59296 2.542863 635.080112 80.376593 635.080112h1033.286979c77.391492 0 110.559274-80.597711 47.20881-117.524508z"  horiz-adv-x="1194" />

    
    <glyph glyph-name="xiazai" unicode="&#58926;" d="M65.151621-127.689014H1051.133551a60.797813 60.797813 0 0 1 65.151621 55.277808 60.797813 60.797813 0 0 1-65.151621 55.277807H65.151621a60.797813 60.797813 0 0 1-65.151621-55.277807 60.797813 60.797813 0 0 1 65.151621-55.277808z m813.229064 375.049427l-256.563663-229.585605a96.949966 96.949966 0 0 0-63.596689-22.85749 95.239541 95.239541 0 0 0-63.441197 23.32397L237.671247 247.593653a62.896971 62.896971 0 0 0-21.924531 46.025966 78.601777 78.601777 0 0 0 85.521221 68.805709H303.211601v-0.310986h115.298155V896h279.03242v-533.885658h112.188292v-0.544226h5.053527a78.601777 78.601777 0 0 0 85.521221-68.805709 61.730772 61.730772 0 0 0-21.769038-45.71498z"  horiz-adv-x="1116" />

    
    <glyph glyph-name="tupianshangchuan" unicode="&#58927;" d="M885.474995 896H110.768551A116.117266 116.117266 0 0 1 0.080842 775.71649v-756.831912a116.117266 116.117266 0 0 1 110.687709-120.28351H885.474995a116.117266 116.117266 0 0 1 110.687708 120.28351V775.71649A116.117266 116.117266 0 0 1 885.474995 896zM244.921623 727.603085a101.414455 101.414455 0 1 0-101.118785-101.414454 101.253181 101.253181 0 0 0 101.118785 101.414454z m43.866523-315.989485a19.406636 19.406636 0 0 0 30.427024 0.752612l107.193439-129.019185a19.406636 19.406636 0 0 1 30.265751 0.510701l163.074873 210.274392a19.379757 19.379757 0 0 0 30.991483-0.456943l211.161399-289.110489a19.487273 19.487273 0 0 0-15.670455-30.991483H162.295587a26.233901 26.233901 0 0 0-20.88498 42.011871zM898.511308-2.430466m-122.998289 0a122.998289 122.998289 0 1 1 245.996578 0 122.998289 122.998289 0 1 1-245.996578 0ZM922.675526 72.615693a22.202051 22.202051 0 0 1-32.254796 0l-64.052649-64.29456a22.820268 22.820268 0 0 1 32.254796-32.254796l25.239378 25.239377v-79.884378a23.008421 23.008421 0 0 1 22.954663-22.954663 21.69135 21.69135 0 0 1 22.954663 22.954663v79.884378l27.550972-27.550971a22.820268 22.820268 0 1 1 32.254796 32.254796l-66.579275 66.579275z"  horiz-adv-x="1024" />

    
    <glyph glyph-name="riqi" unicode="&#58928;" d="M3.001625 495.340944l7.753486-528.646793a97.564703 97.564703 0 0 1 23.495413-62.262845 95.332638 95.332638 0 0 1 72.953257-32.42367c9.163211 0 18.208945 0 27.372157 0.41117l797.904227 11.747706a95.743808 95.743808 0 0 1 82.762593 53.510804 104.260895 104.260895 0 0 1 9.515642 45.346147l-0.587385 39.413555-1.116032 78.122249-1.527202 104.730803-1.762156 119.29796-1.762156 121.236331-0.939817 64.201217-1014.35572-14.860849z m993.092371 277.598306a96.977317 96.977317 0 0 1-78.357202 39.413555l-135.098626-1.99711 1.938372-131.574313a58.738533 58.738533 0 1 0-117.065896-1.703417l-1.938371 131.574313-319.948787-4.699083 1.938371-131.574313a58.738533 58.738533 0 0 0-117.065895-1.703418l-1.938372 131.574314-129.224772-1.879633h-8.81078A96.037501 96.037501 0 0 1 7.465753 741.279181a132.984038 132.984038 0 0 1-6.989885-54.45062l1.99711-136.860781 1014.35572 14.860849-1.233509 84.113578-0.82234 56.741423v11.747706a95.450116 95.450116 0 0 1-18.737591 55.507914zM259.689012 861.634434l2.467019-170.341745c0-7.929702 0-15.859404 0.352431-23.495413v-0.352431a28.370711 28.370711 0 0 1 8.223394-19.148761 27.195941 27.195941 0 0 1 46.109749 19.912362v19.266239l-0.704863 46.520918-0.822339 56.03656-0.704863 48.576766c0 7.929702 0 15.859404-0.352431 23.495413V862.456774a28.370711 28.370711 0 0 1-8.223395 19.148761 27.372156 27.372156 0 0 1-19.383715 7.636009 27.60711 27.60711 0 0 1-26.960987-27.60711zM696.233787 868.036934l2.467018-170.341745c0-7.929702 0-15.859404 0.352431-23.495413v-0.352431a28.370711 28.370711 0 0 1 8.223395-19.148761 27.313418 27.313418 0 0 1 19.383716-7.63601 27.60711 27.60711 0 0 1 26.784771 27.548372v19.266239l-0.704863 46.520918-0.822339 56.03656-0.704863 48.576766c0 7.929702 0 15.859404-0.352431 23.495413V868.859274a28.370711 28.370711 0 0 1-8.223394 19.148761 27.313418 27.313418 0 0 1-19.383716 7.636009 27.60711 27.60711 0 0 1-27.078464-27.60711zM630.211676 367.525897l-139.034107-339.802411h-46.579656l132.220437 315.719613H399.193027v39.707248h231.018649z"  horiz-adv-x="1025" />

    
    <glyph glyph-name="zidianguanli" unicode="&#58929;" d="M507.562871 664.506461h-85.329398v-354.970299h85.329398a178.565988 178.565988 0 1 1 0 354.970299zM861.964307 895.976677H192.868049A133.512066 133.512066 0 0 1 56.909874 765.650242v-763.243029A133.512066 133.512066 0 0 1 192.868049-127.976108h669.096258a136.982128 136.982128 0 0 1 122.02104 73.155738H202.083624a49.946141 49.946141 0 0 0-50.856322 48.75153v-3.925152a50.003028 50.003028 0 0 0 50.856322 48.808416h611.527357a180.898325 180.898325 0 0 1 184.083956 176.347424V765.479583A133.625838 133.625838 0 0 1 861.964307 895.976677z m-126.856373-625.236948a295.23972 295.23972 0 0 0-220.377393-76.512027H295.889076v568.862658h218.727692a295.23972 295.23972 0 0 0 220.377394-76.512028 335.628968 335.628968 0 0 0 0-415.781717z"  horiz-adv-x="1024" />

    
    <glyph glyph-name="xiangmuguanli" unicode="&#58931;" d="M1023.43168-16.440889V624.981333a65.479111 65.479111 0 0 1-71.281778 71.224889H550.229902a63.146667 63.146667 0 0 0-37.034666 11.377778s-17.066667 28.444444-48.469334 73.955556c-28.444444 51.2-65.536 42.780444-65.536 42.780444H88.405902A82.887111 82.887111 0 0 1 0.057458 741.660444v-752.583111c0-94.094222 71.224889-82.602667 71.224889-82.602666H960.853902c73.955556 0.170667 62.577778 77.084444 62.577778 77.084444zM259.470791 146.204444a54.158222 54.158222 0 0 0 0 108.088889 54.158222 54.158222 0 1 0 0-108.088889z m0 202.410667a52.394667 52.394667 0 0 0-54.158222 54.158222 54.158222 54.158222 0 1 0 54.158222-54.158222z m530.204445-199.566222H447.602347a51.2 51.2 0 1 0 0 102.4h342.072889a51.2 51.2 0 1 0 0-102.4z m0 202.353778H447.602347a51.2 51.2 0 1 0 0 102.4h342.072889a51.2 51.2 0 1 0 0-102.4z"  horiz-adv-x="1024" />

    
    <glyph glyph-name="shouye1" unicode="&#58932;" d="M716.183879 10.173669a107.512653 107.512653 0 0 1-107.341999 106.318069H448.36929a107.512653 107.512653 0 0 1-107.626423-106.318069v-24.517436h375.441012zM934.90671 141.919333H89.083619A87.659788 87.659788 0 0 0 0.001707 230.034201v466.457014A89.821418 89.821418 0 0 0 93.236225 782.160028h837.460995A89.878303 89.878303 0 0 0 1023.931738 696.377445v-466.457014a87.659788 87.659788 0 0 0-89.025028-88.001098zM111.325655 720.212261V513.66282c0-11.377 16.325996-15.13141 23.322851-16.098456h0.45508s21.331876 0 21.331875 19.340901l-0.625735 203.306996z m89.025028 0v-123.952419a22.355806 22.355806 0 0 1 44.540956 0V661.563824 720.155376z"  horiz-adv-x="1024" />

    
    <glyph glyph-name="exit2" unicode="&#58933;" d="M812.021764 758.071455a70.345591 70.345591 0 0 1-85.4092 6.508064 62.301916 62.301916 0 0 1-30.785336-71.661829c0-26.032256 20.474808-39.121508 41.02274-52.137636a337.176216 337.176216 0 0 0 99.083447-442.913976 380.246438 380.246438 0 0 0-403.280597-179.154571 355.38417 355.38417 0 0 0-287.08606 329.059417A332.788757 332.788757 0 0 0 292.546631 640.926302a66.396878 66.396878 0 0 1 17.11109 100.984679 75.464293 75.464293 0 0 1-109.686473 6.508064A477.428652 477.428652 0 0 1 25.642882 211.028455a507.848367 507.848367 0 0 1 485.326078-338.711827 499.877817 499.877817 0 0 1 512.674571 485.252954 464.558773 464.558773 0 0 1-212.060513 400.574997M484.20546 238.45007299999997a81.241114 81.241114 0 0 1 108.95523 85.555448V802.531038A79.413006 79.413006 0 0 1 511.261457 895.910788a86.286692 86.286692 0 0 1-85.555449-85.555448v-489.93291a90.820399 90.820399 0 0 1 58.499452-81.67986"  horiz-adv-x="1024" />

    
    <glyph glyph-name="mianbaoxie1" unicode="&#58934;" d="M195.047619 408.380952a48.761905 48.761905 0 1 0-48.761905-48.761904 48.761905 48.761905 0 0 0 48.761905 48.761904zM146.285714 603.428571m48.761905 0l633.904762 0q48.761905 0 48.761905-48.761904l0 0q0-48.761905-48.761905-48.761905l-633.904762 0q-48.761905 0-48.761905 48.761905l0 0q0 48.761905 48.761905 48.761904ZM292.571429 408.380952m48.761904 0l487.619048 0q48.761905 0 48.761905-48.761904l0 0q0-48.761905-48.761905-48.761905l-487.619048 0q-48.761905 0-48.761904 48.761905l0 0q0 48.761905 48.761904 48.761904ZM146.285714 213.333333m48.761905 0l633.904762 0q48.761905 0 48.761905-48.761904l0 0q0-48.761905-48.761905-48.761905l-633.904762 0q-48.761905 0-48.761905 48.761905l0 0q0 48.761905 48.761905 48.761904Z"  horiz-adv-x="1024" />

    


  </font>
</defs>
</svg>
